<svg xmlns="http://www.w3.org/2000/svg" xmlns:xlink="http://www.w3.org/1999/xlink" version="1.1" x="0px" y="0px" xml:space="preserve" viewBox="398.92 251 116.92 213.4"><g id="OBJECTS">	<g>		<path style="fill:#ffffff;" d="M481.275,360.568c0,0,4.864,0,5.527-2.763c0.663-2.764,1.99-11.939,1.769-15.034    c-0.221-3.095-1.326-12.713-2.321-15.697c-0.995-2.985-3.648-10.723-3.537-11.054c0.11-0.332,0.995-2.432,0.995-2.432    s2.432,3.758,3.095,4.09c0.663,0.332,1.793,0.332,1.793,0.332s5.06,4.753,5.392,6.633c0.332,1.879,1.437,6.633,3.538,10.06    c2.1,3.427,5.306,8.622,5.085,11.607c-0.221,2.985-1.216,8.622-1.216,9.617c0,0.995-0.553,2.543-0.221,2.653    c0.332,0.111,2.432,0.553,2.432,0.553l0.995,2.653c0,0-2.432,3.648-2.432,4.311c0,0.663,0.553,1.658,0.553,1.658l3.206-2.653    c0,0,2.874-0.995,3.427-1.769c0.553-0.774,3.206-3.98,3.537-4.532c0.332-0.553,0.774-2.542,0-3.206    c-0.774-0.663-2.985-6.412-2.874-8.18c0.111-1.769-1.105-5.969-1.216-7.848c-0.11-1.879-2.874-15.034-2.874-15.034    c-1.548-3.538-6.301-10.17-6.633-10.612c-0.332-0.442-2.432-4.09-2.432-4.09l-1.879-4.974c0,0-6.854-14.371-7.738-15.145    c-0.884-0.774-15.145-7.075-23.767-8.291c-0.442-2.432,1.105-6.412,1.105-6.412l0.553-5.748c0,0,1.769-3.206,1.879-4.311    c0.11-1.105,1.216-2.543,1.769-2.985c0.553-0.442,1.437-2.874,0.995-4.422c-0.442-1.548-6.964-5.638-6.964-5.638l0.111,1.216    c0,0-3.648-1.879-3.98-2.1c-0.332-0.221,0.221,1.658,0.221,1.658s-7.296-2.322-12.492-0.332c-5.195,1.99-7.406,7.627-7.406,7.627    l1.879,2.211l0.111,6.743c0,0-1.548,0-2.322,1.216c-0.774,1.216,0.553,5.748,0.884,6.301c0.332,0.552,3.206,1.99,3.206,1.99    l1.105,4.864l-1.105,2.1c0,0-5.638,2.764-8.733,4.422c-3.095,1.658-8.622,4.311-11.054,8.512    c-2.432,4.201-5.196,9.286-6.301,11.718c-1.105,2.432-2.542,7.407-3.979,8.733c-1.437,1.327-3.538,5.969-5.417,7.738    c-1.879,1.769-3.316,3.869-3.427,6.743c-0.111,2.874,0.553,5.306,2.432,8.954c1.879,3.648,4.643,6.854,4.643,6.854    s-2.1,5.417-2.763,6.854c-0.663,1.437-4.201,6.743-3.869,7.075c0.332,0.332,1.437,0.774,1.437,0.774l2.874-4.422    c0,0-0.884,5.97-0.332,5.859c0.553-0.11,1.769,0.002,1.769,0.002l1.548-5.971c0,0,0.221,6.083,0.553,5.971    c0.332-0.112,2.1-0.554,2.1-0.554l0.774-8.18c0,0,1.769,6.301,2.321,6.08c0.553-0.221,1.879-0.332,1.879-0.663    c0-0.332-0.442-8.401-0.442-8.401s3.648-0.553,3.98-1.437c0.332-0.884-2.543-6.191-4.201-8.401    c-1.658-2.211-3.869-8.18-3.869-8.18c0-1.437,1.105-4.754,2.211-5.748c1.105-0.995,4.974-3.316,6.301-5.859    c1.327-2.542,5.085-5.195,5.638-6.19c0.553-0.995,2.1-3.095,2.1-3.095l2.211,0.884c0,0,0.663,3.537,0.221,5.638    c-0.442,2.1-1.769,7.185-0.553,9.175c1.216,1.99,1.879,3.869,1.879,3.869s-3.206,2.653-2.985,5.638    c0.221,2.985,1.769,7.848,1.658,8.18c-0.111,0.332,1.879,1.879,2.1,2.211c0.221,0.332-2.1,1.548-2.653,3.869    s-2.653,2.874-2.543,5.969c0.11,3.095-2.874,6.412-2.432,9.507c0.442,3.095-2.321,5.417-1.99,8.623    c0.332,3.206,0.221,7.849,0.221,7.849s-1.67,9.396-2.217,12.823c-0.547,3.427-3.089,6.19-6.516,9.838    c-3.427,3.648-4.753,9.507-5.196,11.939c-0.442,2.432-4.643,14.482-5.859,19.014c-1.216,4.532-2.1,10.281-4.09,12.16    c-1.99,1.879-3.537,5.306-3.537,6.633s0.553,3.206,0.553,3.206s13.044,0.663,13.597,0c0.553-0.663-0.221-4.311-0.221-4.311    s1.327-8.328,2.322-10.023c0.995-1.695,4.201-7.996,5.196-9.654c0.995-1.658,4.975-8.402,4.975-8.402s0.221,4.974,3.316,5.306    c3.095,0.332,6.301-3.759,7.075-5.196c0.774-1.437,4.09-13.265,4.09-13.265l6.412,3.206c1.437,0.884,7.959,3.095,7.959,3.095    s2.874,2.874,5.748,2.874c2.874,0,6.854-0.995,9.175-5.417c2.321-4.422,6.19-12.713,6.633-15.587    c0.442-2.874,2.985-21.446,2.985-21.446s3.427-8.954,3.759-10.833c0.332-1.879,0-5.196,0-5.196L481.275,360.568z M451.316,403.878    h-7.879l-2.912-3.768l3.255-7.88l5.31-7.366c0,0,0,7.023,0,9.592c0,2.569,3.426,6.338,3.426,6.338L451.316,403.878z"></path>		<circle style="fill:#ffffff;" cx="499.621" cy="448.186" r="16.216"></circle>	</g></g></svg>