<?xml version="1.0" encoding="utf-8"?>
<!-- Generator: Adobe Illustrator 27.5.0, SVG Export Plug-In . SVG Version: 6.00 Build 0)  -->
<svg version="1.1" xmlns="http://www.w3.org/2000/svg" xmlns:xlink="http://www.w3.org/1999/xlink" x="0px" y="0px"
	 viewBox="0 0 800 800" style="enable-background:new 0 0 800 800;" xml:space="preserve">
<g id="BACKGROUND">
	<g>
		<defs>
			<rect id="SVGID_1_" width="800" height="800"/>
		</defs>
		<clipPath id="SVGID_00000000906848318679792150000015865381597789796020_">
			<use xlink:href="#SVGID_1_"  style="overflow:visible;"/>
		</clipPath>
		
			<radialGradient id="SVGID_00000089546864619012571550000001795464835598205067_" cx="402" cy="404" r="468" gradientUnits="userSpaceOnUse">
			<stop  offset="0.6967" style="stop-color:#FFFFFF"/>
			<stop  offset="0.8659" style="stop-color:#F8F7F6"/>
			<stop  offset="1" style="stop-color:#F0EDEC"/>
		</radialGradient>
		
			<rect x="-66" y="-64" style="clip-path:url(#SVGID_00000000906848318679792150000015865381597789796020_);fill:url(#SVGID_00000089546864619012571550000001795464835598205067_);" width="936" height="936"/>
	</g>
</g>
<g id="OBJECTS">
	<g>
		<path style="opacity:0.1;fill:#000D20;" d="M687.694,409.726c0,6.488-36.394,11.746-81.292,11.746
			c-44.896,0-81.293-5.258-81.293-11.746c0-6.486,36.396-11.745,81.293-11.745C651.3,397.981,687.694,403.239,687.694,409.726z"/>
		<path style="fill:#000D20;" d="M602.531,261.984c0,0-24.279-12.194-29.203-13.538c0,0-3.537-17.067-4.582-19.454
			C567.703,226.602,557,213.417,557,213.417v-4.816c0,0-0.965-3.243,0.262-3.393c0,0,6.387,0.758,6.387-1.248
			c0-2.008,0.336-7.108,0.336-7.108s4.591,0.218,3.505-2.17c-1.085-2.387-1.338-5.371-1.609-7.053
			c-0.271-1.682-0.048-6.728,0.223-7.433c0.272-0.706,0.604-4.069-2.761-5.859c-3.364-1.792-23.928-8.518-24.035,12.751
			c0,0,0.001,2.386,3.038,6.727c3.039,4.341-4.448,9.983-5.315,11.937c-0.867,1.954-8.846,11.611-7.977,24.09
			c0.867,12.479,1.139,26.803,1.898,32.554c0.76,5.751,0.272,38.142,0.272,38.142s4.285,0.271,6.782,1.574l0.65,26.695
			c0,0-3.419,13.128-4.667,23.167c-1.247,10.039-1.031,30.33-0.814,32.393c0.219,2.062-2.006,16.93-1.085,18.449
			c0,0,1.791,0.271,2.822,0.38c1.03,0.109-0.759,9.386,2.441,9.658c3.201,0.273,38.361,1.085,39.664-0.976
			c1.301-2.062-1.845-4.284-6.132-4.611c-4.286-0.325-9.766-4.232-10.525-5.264l7.597-0.272c0,0,1.139-5.315-2.714-5.425
			c-3.853-0.109-10.146-1.301-10.31-2.062c-0.163-0.76,4.559-2.006,4.559-2.006s2.713-6.023,2.55-9.875
			c-0.163-3.852,2.334-19.043,2.551-21.43c0.216-2.388,2.386-19.152,2.712-21.865c0.326-2.712,2.334-20.726,2.551-23.547
			c0.217-2.821-0.272-10.526-0.272-10.526l8.629-0.921c0,0-0.381-29.951-1.086-32.121c-0.706-2.17-0.163-2.875-0.163-2.875
			l15.247,8.192l7.977-4.611c0,0,4.177,4.559,8.789,4.559s6.945-3.745,6.945-3.745l1.466,2.008l23.278-13.78
			c0,0,0.976,10.96,0.759,15.138c-0.216,4.178-1.736,31.2-1.736,31.2l2.063,0.434c0,0,1.356,11.936,2.007,15.843
			c0.652,3.908,0.762,25.72,1.519,30.494c0.76,4.774,1.953,23.656,2.551,26.912c0.597,3.255,1.031,8.409,1.031,8.409l1.952,0.326
			c0,0-1.194,1.954-2.116,2.225c-0.921,0.271-5.316,6.402-8.464,7.596c-3.148,1.194-9.658-0.106-9.549,2.442
			c0.108,2.55,15.794,2.062,15.794,2.062l8.523-3.364v2.034l1.916,0.136c0,0,0.148,1.898-0.34,2.28
			c-0.488,0.38-10.045,3.036-10.207,4.557c-0.162,1.52,1.732,1.899,3.523,1.952c1.791,0.056,23.873-1.627,23.873-1.627
			s4.015-1.194,3.038-6.131c-0.978-4.938,2.114-9.278,2.114-9.278l0.761-17.688c0,0,1.247-27.67-0.868-30.112
			c-2.115-2.442-0.598-19.804-0.652-21.92c-0.054-2.115,1.885-14.322,1.885-14.322l7.828-2.008c0,0-3.744-20.562-3.853-23.601
			c-0.108-3.039,5.589-16.658,5.806-20.782c0.218-4.124,2.063-20.616,1.629-23.167c-0.435-2.551,2.333-12.316-3.962-16.982
			c-6.293-4.667-8.681-5.749-9.712-7.432c-1.03-1.682-1.41-5.806-1.303-6.348c0.109-0.542,3.69-4.611,3.69-6.185
			c0-1.575,1.465-10.364-1.953-12.914c-3.419-2.549-17.201-11.879-23.93-0.377c0,0-1.519,4.233-1.084,7.813
			c0.434,3.581-1.52,5.1-1.466,5.697c0.055,0.596,0.652,0.976,2.442,0.921c1.791-0.054-2.062,6.836-0.379,8.301
			c1.681,1.465,4.393,0.488,3.689,3.147c-0.706,2.658-8.792,9.712-10.148,12.424c-1.357,2.713-4.503,7.922-5.697,11.069
			c-1.193,3.148-14.595,13.078-16.819,14.651c-2.225,1.573-11.884,5.099-11.884,5.099s-2.821-2.442-4.775-1.791
			C606.21,259.485,602.595,259.925,602.531,261.984z"/>
	</g>
	<g>
		<path style="opacity:0.1;fill:#000D20;" d="M167.168,409.998c0,5.696-12.601,10.314-28.146,10.314
			c-15.544,0-28.145-4.617-28.145-10.314c0-5.695,12.601-10.313,28.145-10.313C154.567,399.685,167.168,404.303,167.168,409.998z"/>
		<path style="fill:#000D20;" d="M159.107,339.674c0,0-3.106-20.461-3.106-26.913c0-6.45-1.011-24.825-1.011-24.825l5.01-7.032
			v-2.475c0,0,8.854-11.501,10.145-14.942c1.29-3.441,3.094-47.95-2.497-51.39c-5.591-3.439-21.246-13.547-22.751-15.912
			c-1.504-2.365,1.741-4.516,3.031-5.806c1.291-1.29,2.806-11.181,1.301-15.051c-1.505-3.871-5.371-7.096-6.876-7.526
			c-1.505-0.43-15.479-2.365-16.339,8.816c-0.86,11.181,1.506,22.147,3.656,21.718c2.15-0.431,1.506,3.655,0.861,4.729
			c-0.645,1.075-11.611,10.321-11.611,10.321s-0.86,5.805,0,14.621c0.86,8.816-5.805,23.653-5.59,27.953
			c0.215,4.3,1.076,40.638,1.076,40.638l4.515-0.645l-0.86,9.031l-10.751,7.5L112.471,346h7.138l5.333-3.11
			c0,0,3.87,13.299,4.945,20.396c1.075,7.096,2.15,33.312,2.15,33.312s-14.622,5.368-16.987,5.584
			c-2.364,0.214-1.72,3.436,0.861,3.651c2.58,0.216,14.836,3.869,22.147-1.507c0,0,2.795-2.584,3.225-1.077
			c0.43,1.506,2.15,1.936,2.15,1.936s-2.365,10.535,2.15,12.471c4.515,1.934,15.052,1.504,13.762-5.377
			c-1.29-6.879-3.01-9.676-2.15-13.762C158.055,394.433,161.646,358.884,159.107,339.674z"/>
	</g>
	<g>
		<path style="opacity:0.1;fill:#000D20;" d="M289.152,414.998c0,5.696-24.014,10.314-53.638,10.314
			c-29.623,0-53.637-4.617-53.637-10.314c0-5.695,24.014-10.313,53.637-10.313C265.138,404.685,289.152,409.303,289.152,414.998z"/>
		<path style="fill:#000D20;" d="M287.019,237.017c-4.865-6.4-12.036-21.249-13.315-24.322l-23.812-9.729
			c0,0-0.512-3.328,1.28-6.401c1.792-3.073,5.632-9.474,4.864-16.131c-0.768-6.657-2.302-11.778-8.96-13.57
			c-6.658-1.793-17.154,2.304-16.386,12.546c0.768,10.242,1.024,10.754,1.792,12.802c0.768,2.048,0.256,8.449,0.256,8.449
			s-14.338,7.937-25.091,7.424c0,0-0.512,6.913-1.536,9.473c-1.024,2.561-28.676,28.932-18.178,45.575
			c10.498,16.643,14.85,19.203,14.85,19.203l-2.048,19.714l10.242,1.793c0,0-0.77,20.739-0.77,31.235
			c0,10.498-7.68,52.489-4.864,70.154c0,0-4.354,7.936-11.01,9.984c-6.657,2.049-1.279,5.377,4.609,4.098
			c5.888-1.281,22.019-3.328,23.556-6.4c1.536-3.074,1.536-14.338,3.072-17.412c1.536-3.072,0.511-36.613,2.047-46.598
			c1.536-9.985,7.169-32.772,11.522-32.26c4.352,0.512,4.608,8.704,5.12,12.545c0.512,3.841,4.865,78.86,4.865,78.86
			s0.001,5.889,4.609,5.633c4.608-0.256,5.633,2.049,10.498,4.096c4.864,2.049,14.593,1.023,11.52-3.072
			c-3.072-4.096-8.191-3.328-10.496-10.24c-2.306-6.914,2.304-20.228,2.304-28.933c0-8.705-2.816-35.588-2.304-46.854
			c0.512-11.266-0.256-21.763-0.256-21.763l14.337-0.513l-1.536-22.019c0,0,15.106-18.435,16.642-25.348
			C295.98,252.123,291.885,243.417,287.019,237.017z M209,263.083c0,0-5.59-6.608-6.614-10.181
			C201.362,249.33,209,241.45,209,241.45V263.083z M280.086,254.171c-0.768,2.56-7.086,7.639-7.086,7.639v-17.816
			C273,243.995,280.854,251.611,280.086,254.171z"/>
	</g>
	<g>
		<path style="opacity:0.1;fill:#000D20;" d="M422.803,414.998c0,5.696-22.592,10.314-50.463,10.314
			c-27.87,0-50.462-4.617-50.462-10.314c0-5.695,22.593-10.313,50.462-10.313C400.211,404.685,422.803,409.303,422.803,414.998z"/>
		<path style="fill:#000D20;" d="M411.704,413.013c-2.8-0.653-11.948,0.653-14.28-10.267l-0.037-0.445
			c0,0-2.037-20.804-2.037-27.485c0-6.681-2.132-22.492-3.086-28.537c-0.955-6.045-7.906-40.675-7.906-40.675l6.704-4.431
			l-1.579-23.53c0,0,7.323,3.506,8.277-5.72c0.955-9.227,1.912-18.768-6.678-36.903c0,0-2.543-22.269-3.18-26.087
			c-0.636-3.818-18.77-8.271-18.77-8.271s0.954-4.135,5.091-8.907c4.136-4.772,1.908-16.226,1.591-19.407
			c-0.318-3.182-15.164-12.557-23.004-0.983c0,0-1.12,5.506,0,8.493c0,0-2.146-1.119-2.053,1.121c0.093,2.24-0.56,8.213,2.053,7.654
			l-0.094,6.066c0,0-8.212,5.507-10.173,6.347c-1.961,0.839-16.427,0.466-16.895,6.347c-0.467,5.88-8.398,33.787-8.585,42.188
			c-0.187,8.401-2.238,44.989-2.238,44.989l1.68,0.466c0,0-3.079,6.906-1.306,9.24c1.773,2.334,1.12,3.081,1.12,3.081l-5.414-2.053
			l-3.547,0.279l-3.081,39.443L323.787,356h8.44l-0.133-41.019l-6.628-4.793l0.094-2.49c0,0,2.895-1.572,2.241-6.798
			c-0.654-5.226-2.054-6.432-2.054-6.432s2.239-9.703,3.08-13.53c0.84-3.827,2.8-14.558,2.8-14.558s0.188,7.748,0.374,11.294
			c0.186,3.546-0.747,24.734-0.747,24.734l2.521,1.588c0,0,0.281,22.4,0.561,25.293c0.279,2.893,0.467,42.841,0.467,42.841
			s2.893,28.186,2.987,30.706l2.52,0.561c0,0-0.28,5.601,0.56,8.587c0.84,2.986,0.188,7.466,5.788,8.12
			c5.6,0.654,10.267-0.277,9.333-2.239c-0.934-1.961-2.241-10.081-2.52-11.015c-0.279-0.934-0.373-2.893-0.373-2.893l2.707-0.56
			c0,0,1.4-24.266,0.186-27.813c-1.215-3.547-1.215-24.923-1.308-28.936c-0.094-4.013,3.826-32.014,4.48-33.601
			c0.653-1.587,1.492-4.2,3.266,0.747c1.773,4.946,6.438,26.322,7.466,30.055c1.026,3.733,5.227,27.349,6.439,35.561
			c1.213,8.214,2.24,27.454,2.24,27.454l0.372,8.135h9.278c0,0,1.175-2.156,3.229-0.383c2.053,1.773,17.36,6.01,20.906,3.489
			C415.904,415.588,414.505,413.666,411.704,413.013z M384.27,246.191c0,0,2.451,3.677,3.142,4.596
			c0.69,0.919-1.15,12.638-1.15,12.638C382.432,258.371,384.27,246.191,384.27,246.191z"/>
	</g>
	<g>
		<path style="opacity:0.1;fill:#000D20;" d="M259.748,707.726c0,6.488-27.912,11.746-62.346,11.746
			c-34.433,0-62.347-5.258-62.347-11.746c0-6.486,27.913-11.745,62.347-11.745C231.836,695.981,259.748,701.239,259.748,707.726z"/>
		<path style="fill:#000D20;" d="M239.194,600.762l8.166-0.681c0,0-0.171-23.812-2.042-34.697
			c-1.871-10.886,0.936-32.315,0.936-32.315c5.869-9.696,1.275-20.922,1.275-20.922l-9.355-12.078c0,0-1.105-4.592-2.467-5.953
			c-1.361-1.361-7.229,4.593-3.742-10.714c3.486-15.308-7.823-17.35-7.823-17.35c-22.454-0.68-19.645,17.434-18.881,19.56
			c0.766,2.127,2.723,3.998,2.297,6.804c-0.425,2.807,0.426,3.742,1.53,3.913c1.105,0.17,3.658,3.147,3.828,3.572
			c0.168,0.425-0.595,2.126,0.765,2.38c1.359,0.256,2.887,1.389,2.887,1.389s-6.586,12.073-8.781,15.914
			c-2.195,3.842-3.841,21.128-3.841,21.128l-5.213-8.78l-15.366-0.274l-6.036-31.829c0,0-2.744-7.408-9.329-7.134
			c-6.585,0.274-5.215-3.293-5.215-3.293c4.938-12.073,1.097-25.52,1.097-25.52c-11.524-11.525-20.582-4.667-24.423-0.003
			c-3.841,4.665-0.827,12.62,0.545,14.815c1.372,2.193,3.285,8.772,3.285,8.772s-4.134,8.494-13.188,10.689
			c-9.056,2.195-8.54,3.815-9.782,6.01c-1.241,2.194-7.88,39.183-8.43,43.848c-0.547,4.666,16.602,21.569,16.602,21.569
			l-1.991,16.637l-3.572,0.511l-0.593,42.353l11.821,1.106c0,0,1.702,28.065,2.297,35.379s3.742,19.39,4.338,24.917
			c0.596,5.528,5.188,8.675,6.124,9.611c0.937,0.936,1.19,4.336,0.425,8.759c-0.765,4.422,13.012,2.296,12.586-0.851
			c-0.425-3.147,0.341-10.63,1.105-14.032c0.765-3.401-0.085-10.375-4.253-16.669c-4.167-6.293-1.275-14.797-2.21-20.494
			c-0.935-5.699-0.255-24.919-0.255-24.919l4.507,0.339c0,0,0.596,1.701,1.021,3.997c0.425,2.297,8.079,28.066,9.271,34.614
			c1.19,6.549,3.967,15.784,4.707,17.095c0.809,1.433,0.5,3.143,0.5,3.143c-3.437,2.321-1.633,15.907-1.633,15.907l12.417,0.17
			c0,0,0.549-1.423,3.13-1.492c2.639-0.071,3.333,1.577,3.333,1.577s10.826-0.335,17.27-0.934c-1.637,0.927-3.297,1.607-4.852,1.783
			c-6.803,0.766-3.401,2.806-3.401,2.806s26.364,0.565,26.96-0.372c0.596-0.934,0.732,0.479,0.732,0.479h13.809l-0.511-0.863
			l1.786-0.022l-0.947-12.944c0,0,0.145-0.933-1.131-2.975c-1.275-2.041-1.239-23.794-1.664-30.767
			c-0.426-6.975-1.276-23.042-1.02-32.653C238.854,621.165,239.194,600.762,239.194,600.762z M132,550.703
			c0,0-3.708-4.217-4.317-5.799c-0.609-1.582,3.076-5.576,3.076-5.576L132,550.481V550.703z M213.887,702.713
			c-1.249-0.2-3.137-0.322-5.905-0.322c-11.821,0-17.349-14.883-18.881-21.602c-1.532-6.719-1.36-33.423-1.36-43.204
			c0-9.779-3.233-20.067-4.593-24.916c-1.36-4.848-3.487-17.775-4.167-22.537c-0.68-4.762-1.616-20.07-2.891-23.302
			c-1.276-3.232-1.615-9.355-1.615-9.355s2.722-8.419,2.807-6.464c0.084,1.956,8.674,6.804,8.674,6.804l4.423,2.298l0.936,6.804
			l11.48-0.256l1.53,32.402l6.889,0.425c0,0,0.852,8.59,1.361,12.927c0.51,4.338,0.511,30.021,0.682,35.464
			c0.17,5.441,3.571,27.554,4.337,31.891c0.765,4.336,2.042,17.348,2.042,17.348S217.188,699.929,213.887,702.713z"/>
	</g>
	<g>
		<path style="opacity:0.1;fill:#000D20;" d="M696.922,704.726c0,6.488-18.588,11.746-41.52,11.746
			c-22.932,0-41.521-5.258-41.521-11.746c0-6.486,18.589-11.745,41.521-11.745C678.334,692.981,696.922,698.239,696.922,704.726z"/>
		<path style="fill:#000D20;" d="M697.113,532.365c-3.953-6.778-17.235-25.974-17.235-25.974s-8.194-9.602-8.759-17.79
			c-0.564-8.191,0.28-18.921-2.544-22.876c-2.824-3.953-12.146-11.011-20.618-1.974c-8.473,9.037-7.909,21.748-9.604,25.419
			c-1.694,3.672-3.389,6.779-5.648,7.061c-2.259,0.281-7.061,2.258-11.296,12.426c-4.237,10.167-19.771,19.769-15.253,32.196
			c4.519,12.428,12.709,25.984,14.969,25.702c2.261-0.283,8.474,1.694,10.45,0.848c0,0-2.259,57.613,1.979,62.416l4.8,1.411
			c0,0-0.565,22.877,2.824,36.435c3.39,13.556-0.847,20.334-2.259,22.029c-1.413,1.694-9.602,11.015-3.106,10.732
			c6.496-0.282,12.709-8.19,12.709-8.19l0.282,3.671l1.977-0.282c0,0,0.641-0.847,1.167-5.648c0.527-4.803,2.016-9.321,0-11.299
			c-2.015-1.975-2.861-4.12-2.861-7.507c0-3.389,1.412-37.172,1.412-37.172h5.629c0,0-1.675,24.707,0.585,30.641
			c2.259,5.93,1.413,18.598,1.413,18.598s-3.955,7.208-3.108,9.751c0.848,2.541,1.977,12.011,1.977,12.011h1.674l-0.261-4.848
			c0,0,1.693,1.121,1.977,2.815c0.282,1.697-1.131,6.642,8.472,6.642c9.604,0,5.367-6.569,2.26-8.545
			c-3.106-1.978-4.235-7.756-4.518-11.991c-0.282-4.235,3.955-44.072,2.259-54.072h6.329l0.063-5.215c0,0,0.335-15.238,2.312-19.756
			c1.976-4.519-0.115-40.376-0.115-40.376s4.179-2.254,7.567,0.006c0,0,5.903,0.001,8.445-9.6
			C695.998,550.456,701.067,539.143,697.113,532.365z M633.617,555.165c-8.293,10.034-16.188-11.906-16.722-16.723
			c-0.535-4.814,12.174-19.398,12.174-19.398s5.753,7.76,5.618,9.498C634.554,530.28,633.617,555.165,633.617,555.165z
			 M676.829,555.299c0,0-5.217-15.116-4.682-21.539c0.534-6.422,4.013-10.836,4.013-10.836s8.83,15.519,9.767,18.462
			C686.863,544.329,681.913,559.179,676.829,555.299z"/>
	</g>
	<g>
		<path style="opacity:0.1;fill:#000D20;" d="M372.921,707.726c0,6.488-22.169,11.746-49.519,11.746
			c-27.349,0-49.52-5.258-49.52-11.746c0-6.486,22.17-11.745,49.52-11.745C350.751,695.981,372.921,701.239,372.921,707.726z"/>
		<path style="fill:#000D20;" d="M367,604.291V598h1.593c0,0-1.073-12.208,0-20.771c1.073-8.564,2.177-25.386,1.901-31.462
			c-0.275-6.078-1.548-33.962-1.548-33.962s-22.207-13.527-23.311-15.185c-1.104-1.656,0-9.111,0-9.111s4.972-6.905,3.315-15.19
			c-1.657-8.286-10.772-13.532-16.849-10.77c-6.076,2.762-9.667,13.533-8.01,18.782c1.656,5.248,2.762,6.076,3.038,8.563
			c0.275,2.486,1.105,7.46-1.382,9.392c-2.485,1.933-20.44,6.63-20.716,12.981c-0.275,6.353-9.392,37.287-8.01,44.47
			c1.381,7.182,0.387,26.797,3.977,28.73c0,0,2.15,5.614,0.442,10.491c-1.555,4.439,0.277,19.333,0.554,27.067
			c0.276,7.734-7.18,63.252-7.18,63.252s2.762,1.934,2.209,4.143c-0.552,2.209-3.867,14.36-14.638,14.638
			c-10.771,0.276-2.771,3.68,0,3.867c2.965,0.2,16.296,1.658,19.334-3.038c3.038-4.696,3.591-2.486,3.867-0.829
			c0.277,1.656,5.801-1.657,5.801-1.657l0.553-15.468c0,0,4.696-7.735,5.801-13.535c1.104-5.799,9.948-61.66,10.979-65.748
			c2.241-8.883,3.022-10.746,3.022-10.746s2.571,11.032,3.951,21.806c1.38,10.772,2.484,54.967,1.657,59.385
			c-0.828,4.419-3.591,10.495-2.21,13.258c1.382,2.763,0.828,7.182,3.314,9.115c2.485,1.934,7.458,7.516,9.668,7.625
			c2.209,0.108,6.077,0.109,6.352-2.653c0.275-2.763-6.905-12.982-6.905-12.982s8.839-22.924,6.353-43.641l28.449-7.182
			l-2.665-37.563L367,604.291z"/>
	</g>
	<g>
		<path style="opacity:0.1;fill:#000D20;" d="M586.922,704.726c0,6.488-18.588,11.746-41.52,11.746
			c-22.932,0-41.521-5.258-41.521-11.746c0-6.486,18.589-11.745,41.521-11.745C568.334,692.981,586.922,698.239,586.922,704.726z"/>
		<path style="fill:#000D20;" d="M576.593,537.935c-5.192-14.134-13.527-34.617-14.264-35.481c-0.737-0.866-8.526-3.75-8.526-3.75
			s1.445-8.077,2.887-13.27c1.441-5.192,3.82-21.637-10.889-24.811C531.094,457.45,528,475.335,528,478.797
			c0,3.461,0,16.265,0,16.265s-7.359-0.688-8.514,3.64c-1.152,4.328-2.169,21.635-0.149,25.674
			c2.019,4.039,7.713,15.867,7.713,15.867s-4.94,11.827-6.095,22.212s-1.172,55.678-1.172,55.678l-5.781,16.153
			c0,0,0.863,4.038,6.922,4.326c0,0,1.438,25.964,4.611,31.156c3.173,5.193,4.039,12.116,3.172,13.56
			c-0.863,1.442-5.483,4.616,0.287,14.711c5.77,10.097,5.479,9.518,8.076,10.097c2.599,0.577,14.425,1.731,10.963-3.172
			c0,0,11.539-0.577,13.269-3.174c1.732-2.597-5.191-4.329-7.788-5.771c-2.597-1.442-9.742-10.674-7.755-14.423
			c1.985-3.75,6.889-19.327,11.216-25.098c4.327-5.771,12.405-19.617,12.405-19.617l4.327-0.865l-0.429-3.256
			c0,0-1.246-16.399-2.69-19.574c-1.443-3.174-7.59-35.441-7.59-38.326c0-2.884,0-8.643,0-8.643l2.391-1.453l-1.61-15.29
			C563.78,549.474,581.785,552.07,576.593,537.935z M538.778,670.597c-4.063-18.988,0.264-32.597,0.264-32.597h11.011
			C544.282,641,538.778,670.597,538.778,670.597z"/>
	</g>
	<g>
		<path style="opacity:0.1;fill:#000D20;" d="M476.922,704.726c0,6.488-18.588,11.746-41.52,11.746
			c-22.932,0-41.521-5.258-41.521-11.746c0-6.486,18.589-11.745,41.521-11.745C458.334,692.981,476.922,698.239,476.922,704.726z"/>
		<path style="fill:#000D20;" d="M464.183,501.739c0,0-6.653-5.137-7.361-7.687c-0.707-2.549-0.21-10.643-0.919-15.033
			c-0.708-4.39-2.725-14.313-7.823-16.721c-5.1-2.407-16.163-2.555-17.722,10.475c-1.558,13.029-2.416,23.084-4.823,25.491
			c0,0-7.796,6.087-7.512,8.92c0.284,2.834-2.269,16.995-2.976,19.119c-0.707,2.126-7.225,6.374-4.107,14.446
			c0,0,0.564,9.065,3.681,10.197c3.116,1.132,6.94,1.841,6.94,1.841s1.559,9.044,1.559,13.01c0,3.966-12.462,52.202-10.338,68.202
			h4.234c0,0,1.148,10.604,1.289,16.127c0.141,5.523,1.274,20.019,1.274,25.826c0,5.807-2.69,18.012-6.231,20.844
			c-3.541,2.832-8.072,2.562-8.072,4.402c0,1.841,3.115,4.682,13.879,2.698c0,0,10.338-14.161,10.622-9.062
			c0.283,5.099-0.283,8.781-0.283,8.781l2.55-0.424c0,0-0.85-6.088,0.566-9.487c1.416-3.398,3.54-7.648-0.708-12.746
			c0,0-1.699-10.055-1.699-18.129c0-8.073,2.832-15.296,1.841-20.96c-0.991-5.665-1.559-7.932-1.559-7.932l16.995,0.991
			l-0.425,37.815c0,0-4.531,18.977-5.807,21.525c-1.275,2.55-8.355,12.181-7.364,13.314c0.991,1.134,12.038,1.134,13.596,0
			c1.559-1.133,3.682-6.372,4.674-9.064l0.283,4.673l1.416-0.425c0,0,0-5.522,0.425-8.214c0.425-2.691,2.692-4.392,2.125-6.515
			c-0.566-2.124-2.125-8.356-2.125-10.481s5.524-13.737,5.949-17.137c0.425-3.399,2.832-20.253,1.841-27.051
			c-0.991-6.799,0.282-38.38,0.85-43.479c0.566-5.1-0.567-27.192-1.983-30.591c-1.416-3.399-4.106-10.481-4.106-10.481
			s4.531-5.241,6.656-12.039C465.607,529.986,469.556,504.933,464.183,501.739z"/>
	</g>
	<g>
		<path style="opacity:0.1;fill:#000D20;" d="M520,406.311c0,6.589-19.45,11.931-43.445,11.931
			c-23.994,0-43.445-5.342-43.445-11.931c0-6.587,19.451-11.927,43.445-11.927C500.55,394.384,520,399.725,520,406.311z"/>
		<path style="fill:#000D20;" d="M450.466,203.449c0,0-0.445-3.419-1.436-3.643c-0.996-0.219-3.752-4.299-3.859-6.065
			c0,0-2.874,0.328-3.426-6.29c0,0-4.516-14.889,7.504-19.414c12.028-4.526,16.664,9.488,16.664,10.371
			c0,0.88,0.656,5.182,0.548,5.85c-0.104,0.657,0.335,5.841-1.105,6.391c0,0,0,3.973-0.433,4.966c0,0-0.556,1.544,0.658,1.985
			c0,0,1.215,2.874,2.212,2.764c0,0,2.971,2.865,4.847,2.865c0,0,3.645,0.771,4.078,1.216c0,0,11.478-1.766,13.135,4.081
			c1.648,5.848,0.228,6.614,0.228,6.614s0.327,2.649-0.448,4.414c-0.767,1.768-0.214,3.526-0.326,4.966
			c-0.112,1.439,0.659,9.388-3.531,15.556c0,0-1.211,8.38-1.326,10.264c-0.108,1.875,0.115,5.182-0.22,7.387
			c-0.331,2.212,1.218,8.72,1.877,9.824c0.662,1.103,0.326,3.747,1.439,3.971l-0.666,0.329c0,0,2.547,28.464,3.978,29.454
			c0,0-2.646,2.872-3.756,2.872c0,0,0.443,8.822,0.882,9.714c0,0,2.098,7.276,0.446,12.239c0,0,0.768,6.4,1.979,7.721
			c1.219,1.325,0.994,5.192,1.325,6.954c0.331,1.763,0.776,2.977,1.651,3.746c0.881,0.768,0.777,1.216,0.777,2.651
			s11.586,42.587,8.053,52.626c0,0,4.086,10.48,3.307,13.349c0,0-1.434,8.053-13.232,5.076c0,0-4.744-1.215-2.102-7.5
			c0,0,1.44-7.398,0.67-8.059l-4.308,0.117c0,0-2.32-6.289-3.532-8.605c-1.211-2.328-5.514-13.24-5.405-15.228
			c0.109-1.988-6.4-29.684-7.728-33.213c-1.321-3.533-3.419-15.777-4.294-16.878c0,0-0.453,5.189-0.777,6.51
			c0,0,1.212,4.633,0.986,11.475c0,0-0.218,20.074-0.662,22.942c0,0,0.662,17.983,1.659,18.865c0,0-0.335,2.426,0.107,2.873
			c0,0,0.993,2.199,0.221,3.316c0,0-8.712,2.086-10.706,3.076c0,0-15.99,8.171-22.722,1.332c0,0,0.11-0.887,0.662-0.887
			c0,0,0.218-1.326,1.651-1.978c0,0,7.947-4.199,9.931-5.307c1.987-1.104,5.296-13.347,4.526-14.779
			c-0.774-1.437-8.832-55.162-8.497-56.927c0,0-5.073-15.225-4.191-16.665c0.876-1.432-0.227,0.443-0.227,0.443
			s-4.528-1.318-5.294-1.318c-0.776,0-2.977,0-2.206-3.096c0,0,5.629-23.051,6.184-25.149l-0.888-0.331
			c0,0,3.206-10.806,2.866-12.251c-0.322-1.432-0.223-0.435-0.223-0.435s0-0.883-1.322-0.436c-1.321,0.436-7.938-1.228-8.715-2.438
			c-0.773-1.211-1.762-6.288-1.651-9.044c0.107-2.758-0.662-7.167,1.104-8.606c1.761-1.435,1.983-1.549,2.645-3.198
			c0.662-1.652,0.662-2.763,1.547-3.529c0.884-0.771,1.103-0.888,0-0.992c-1.104-0.112,0.214-1.109,0.214-1.109
			s-1.977-2.203-0.979-2.974c0.979-0.776,1.531,0.661,0.979-0.776c-0.542-1.43,0.227-2.315,0.781-2.76
			c0.551-0.438-1.218-4.96,0.877-7.055c0,0,11.366-8.163,14.457-7.728C447.927,209.956,450.02,205.659,450.466,203.449z"/>
	</g>
	<g>
		<text transform="matrix(1 0 0 1 176.5107 124.9307)"><tspan x="0" y="0" style="font-family:'Bebas'; font-size:36.9365px;">BUSINESS </tspan><tspan x="157.68" y="0" style="fill:#EA5664; font-family:'Bebas'; font-size:36.9365px;">PEOPLE</tspan><tspan x="276.207" y="0" style="fill:#FFB726; font-family:'Bebas'; font-size:36.9365px;"> </tspan><tspan x="284.037" y="0" style="font-family:'Bebas'; font-size:36.9365px;">COLLECTION</tspan></text>
	</g>
</g>
<g id="DESIGNED_BY_FREEPIK">
	<g id="XMLID_76_" style="opacity:0.4;">
		<g id="XMLID_929_">
			<path id="XMLID_958_" style="fill:#3C3C3C;" d="M291.927,750.279c-0.394,0-0.695,0.136-0.907,0.408
				c-0.213,0.271-0.318,0.674-0.318,1.205v3.828c-0.487-0.53-0.987-0.926-1.5-1.183c-0.514-0.255-1.144-0.384-1.891-0.384
				c-1.291,0-2.333,0.453-3.125,1.357c-0.791,0.905-1.188,2.17-1.188,3.791c0,0.766,0.101,1.478,0.3,2.137
				c0.199,0.659,0.491,1.231,0.879,1.719c0.386,0.487,0.843,0.863,1.372,1.126c0.528,0.263,1.103,0.393,1.725,0.393
				c0.469,0,0.9-0.063,1.295-0.195c0.396-0.129,0.764-0.319,1.103-0.57c0.339-0.249,0.683-0.574,1.03-0.973v0.257
				c0,0.475,0.115,0.84,0.347,1.097c0.231,0.257,0.524,0.385,0.879,0.385c0.361,0,0.655-0.124,0.884-0.37
				c0.229-0.247,0.342-0.617,0.342-1.111V751.76c0-0.488-0.106-0.855-0.318-1.106C292.621,750.404,292.319,750.279,291.927,750.279z
				 M290.222,761.227c-0.225,0.489-0.525,0.853-0.901,1.091c-0.378,0.238-0.794,0.357-1.25,0.357c-0.449,0-0.863-0.126-1.244-0.378
				c-0.38-0.248-0.679-0.62-0.898-1.114c-0.218-0.494-0.327-1.092-0.327-1.795c0-0.665,0.102-1.249,0.309-1.753
				c0.205-0.504,0.495-0.89,0.869-1.158c0.373-0.269,0.798-0.404,1.272-0.404c0.456,0,0.875,0.132,1.259,0.393
				c0.383,0.264,0.687,0.644,0.911,1.14c0.226,0.498,0.337,1.092,0.337,1.782C290.559,760.121,290.447,760.734,290.222,761.227z"/>
			<path id="XMLID_954_" style="fill:#3C3C3C;" d="M303.713,759.754c0.373-0.195,0.561-0.616,0.561-1.27
				c0-0.701-0.182-1.393-0.542-2.07c-0.36-0.677-0.903-1.231-1.63-1.656c-0.725-0.429-1.594-0.641-2.605-0.641
				c-0.779,0-1.488,0.124-2.128,0.374c-0.64,0.251-1.179,0.609-1.615,1.078c-0.436,0.469-0.768,1.03-0.997,1.687
				c-0.229,0.654-0.342,1.365-0.342,2.132c0,1.627,0.463,2.916,1.387,3.865c0.924,0.948,2.22,1.425,3.885,1.425
				c0.729,0,1.373-0.095,1.932-0.285c0.563-0.191,1.025-0.43,1.397-0.717c0.37-0.288,0.647-0.589,0.831-0.902
				c0.184-0.314,0.275-0.587,0.275-0.822c0-0.266-0.083-0.471-0.248-0.617c-0.164-0.144-0.379-0.219-0.645-0.219
				c-0.247,0-0.438,0.057-0.57,0.171c-0.324,0.304-0.586,0.544-0.788,0.723c-0.202,0.178-0.424,0.345-0.665,0.499
				c-0.24,0.156-0.488,0.268-0.746,0.343c-0.256,0.071-0.539,0.107-0.85,0.107c-0.462,0-0.885-0.112-1.268-0.341
				c-0.383-0.228-0.691-0.566-0.922-1.017c-0.231-0.45-0.35-0.969-0.355-1.558h5.07C302.814,760.043,303.34,759.946,303.713,759.754
				z M297.064,758.571c0.089-0.874,0.34-1.535,0.755-1.982c0.414-0.447,0.944-0.669,1.591-0.669c0.678,0,1.223,0.22,1.639,0.659
				c0.414,0.44,0.654,1.104,0.717,1.991H297.064z"/>
			<path id="XMLID_952_" style="fill:#3C3C3C;" d="M312.397,759.055c-0.511-0.271-1.167-0.506-1.97-0.703
				c-0.68-0.165-1.21-0.305-1.596-0.418c-0.388-0.112-0.694-0.257-0.923-0.432c-0.228-0.174-0.341-0.396-0.341-0.67
				c0-0.298,0.154-0.546,0.465-0.744c0.311-0.201,0.699-0.3,1.168-0.3c0.457,0,0.817,0.075,1.084,0.228
				c0.266,0.152,0.496,0.355,0.692,0.608c0.241,0.304,0.454,0.531,0.642,0.683c0.186,0.152,0.412,0.229,0.678,0.229
				c0.369,0,0.652-0.097,0.852-0.285c0.198-0.19,0.298-0.435,0.298-0.732c0-0.273-0.093-0.552-0.28-0.837
				c-0.185-0.284-0.458-0.544-0.816-0.777c-0.356-0.234-0.804-0.423-1.34-0.561c-0.533-0.141-1.137-0.21-1.809-0.21
				c-0.855,0-1.584,0.137-2.188,0.414c-0.605,0.275-1.064,0.645-1.374,1.105c-0.31,0.463-0.466,0.954-0.466,1.473
				c0,0.582,0.168,1.073,0.504,1.473c0.336,0.398,0.783,0.721,1.344,0.963c0.561,0.244,1.287,0.477,2.18,0.697
				c0.791,0.191,1.359,0.391,1.705,0.6c0.346,0.21,0.518,0.541,0.518,0.996c0,0.299-0.166,0.563-0.498,0.795
				c-0.332,0.231-0.758,0.346-1.277,0.346c-0.641,0-1.145-0.113-1.516-0.341c-0.37-0.229-0.689-0.572-0.955-1.036
				c-0.132-0.239-0.271-0.427-0.418-0.56c-0.146-0.132-0.354-0.199-0.625-0.199c-0.311,0-0.568,0.103-0.77,0.305
				c-0.204,0.202-0.305,0.445-0.305,0.73c0,0.432,0.158,0.859,0.475,1.288c0.316,0.426,0.808,0.783,1.473,1.067
				c0.664,0.285,1.463,0.428,2.393,0.428c0.976,0,1.804-0.131,2.484-0.393c0.681-0.263,1.195-0.649,1.543-1.159
				c0.35-0.51,0.522-1.123,0.522-1.839c0-0.475-0.131-0.896-0.394-1.267C313.293,759.648,312.906,759.326,312.397,759.055z"/>
			<path id="XMLID_950_" style="fill:#3C3C3C;" d="M316.57,754.135c-0.38,0-0.688,0.13-0.926,0.39
				c-0.238,0.26-0.355,0.646-0.355,1.158v7.418c0,0.507,0.117,0.896,0.355,1.169c0.237,0.273,0.546,0.408,0.926,0.408
				c0.381,0,0.693-0.133,0.941-0.398c0.246-0.266,0.37-0.659,0.37-1.179v-7.493c0-0.462-0.124-0.823-0.37-1.083
				C317.264,754.265,316.951,754.135,316.57,754.135z"/>
			<path id="XMLID_949_" style="fill:#3C3C3C;" d="M316.6,750.393c-0.348,0-0.654,0.117-0.917,0.356
				c-0.263,0.238-0.393,0.539-0.393,0.907c0,0.406,0.128,0.72,0.385,0.94c0.256,0.222,0.564,0.333,0.926,0.333
				c0.348,0,0.648-0.113,0.901-0.338c0.253-0.225,0.381-0.536,0.381-0.935c0-0.412-0.13-0.725-0.39-0.94
				C317.232,750.5,316.935,750.393,316.6,750.393z"/>
			<path id="XMLID_945_" style="fill:#3C3C3C;" d="M327.996,754.135c-0.348,0-0.633,0.124-0.855,0.37
				c-0.222,0.248-0.332,0.596-0.332,1.045v0.352c-0.462-0.602-0.963-1.043-1.5-1.326c-0.539-0.28-1.176-0.422-1.91-0.422
				c-0.614,0-1.178,0.109-1.69,0.326c-0.513,0.22-0.966,0.544-1.358,0.975c-0.392,0.43-0.693,0.959-0.906,1.587
				c-0.213,0.626-0.318,1.329-0.318,2.108c0,1.045,0.174,1.965,0.522,2.764c0.348,0.798,0.847,1.418,1.495,1.861
				c0.65,0.443,1.408,0.665,2.275,0.665c0.721,0,1.344-0.146,1.865-0.437c0.523-0.291,0.983-0.716,1.383-1.274
				c-0.013,0.85-0.031,1.465-0.057,1.849c-0.025,0.384-0.112,0.743-0.262,1.077c-0.148,0.336-0.408,0.598-0.778,0.784
				c-0.37,0.188-0.892,0.28-1.563,0.28c-0.328,0-0.62-0.031-0.873-0.09c-0.254-0.061-0.471-0.152-0.65-0.274
				c-0.18-0.125-0.346-0.273-0.494-0.447c-0.149-0.174-0.293-0.348-0.432-0.519c-0.285-0.335-0.618-0.503-0.998-0.503
				c-0.303,0-0.564,0.1-0.778,0.3c-0.216,0.198-0.323,0.456-0.323,0.772c0,0.419,0.19,0.826,0.57,1.222
				c0.381,0.395,0.922,0.718,1.623,0.969c0.703,0.25,1.502,0.375,2.395,0.375c0.975,0,1.791-0.098,2.445-0.295
				c0.655-0.195,1.186-0.497,1.591-0.901c0.405-0.406,0.7-0.919,0.883-1.538c0.184-0.622,0.276-1.362,0.276-2.224v-7.531
				c0-0.614-0.082-1.085-0.248-1.411C328.828,754.299,328.496,754.135,327.996,754.135z M326.353,761.121
				c-0.242,0.465-0.553,0.813-0.938,1.045c-0.383,0.23-0.789,0.347-1.219,0.347c-0.729,0-1.322-0.269-1.781-0.808
				c-0.459-0.538-0.689-1.334-0.689-2.384c0-1.038,0.223-1.841,0.669-2.403c0.446-0.563,1.039-0.846,1.781-0.846
				c0.76,0,1.372,0.295,1.838,0.885c0.466,0.588,0.698,1.412,0.698,2.469C326.714,760.091,326.593,760.655,326.353,761.121z"/>
			<path id="XMLID_944_" style="fill:#3C3C3C;" d="M339.762,755.844c-0.264-0.543-0.668-0.964-1.205-1.262
				c-0.539-0.298-1.149-0.447-1.834-0.447c-0.703,0-1.324,0.141-1.865,0.423c-0.542,0.282-1.041,0.724-1.496,1.325v-0.314
				c0-0.309-0.055-0.573-0.166-0.789c-0.111-0.214-0.259-0.375-0.441-0.483c-0.184-0.108-0.391-0.162-0.619-0.162
				c-0.373,0-0.667,0.122-0.883,0.365c-0.215,0.244-0.322,0.613-0.322,1.107v7.493c0,0.507,0.121,0.896,0.361,1.169
				c0.24,0.273,0.547,0.408,0.922,0.408c0.386,0,0.701-0.131,0.944-0.393c0.243-0.263,0.365-0.658,0.365-1.184v-3.248
				c0-1.058,0.063-1.778,0.19-2.165c0.177-0.481,0.455-0.859,0.836-1.136c0.379-0.276,0.801-0.413,1.262-0.413
				c0.711,0,1.184,0.228,1.421,0.68c0.237,0.452,0.357,1.106,0.357,1.961v4.321c0,0.507,0.119,0.896,0.361,1.169
				c0.24,0.273,0.553,0.408,0.94,0.408c0.381,0,0.689-0.133,0.926-0.398c0.238-0.266,0.357-0.659,0.357-1.179v-4.825
				c0-0.57-0.026-1.037-0.077-1.405C340.045,756.504,339.934,756.161,339.762,755.844z"/>
			<path id="XMLID_939_" style="fill:#3C3C3C;" d="M350.713,759.754c0.374-0.195,0.56-0.616,0.56-1.27
				c0-0.701-0.182-1.393-0.541-2.07c-0.361-0.677-0.904-1.231-1.631-1.656c-0.725-0.429-1.593-0.641-2.605-0.641
				c-0.779,0-1.488,0.124-2.128,0.374c-0.64,0.251-1.178,0.609-1.614,1.078c-0.438,0.469-0.77,1.03-0.998,1.687
				c-0.228,0.654-0.342,1.365-0.342,2.132c0,1.627,0.463,2.916,1.387,3.865c0.925,0.948,2.22,1.425,3.885,1.425
				c0.729,0,1.373-0.095,1.934-0.285c0.561-0.191,1.025-0.43,1.395-0.717c0.371-0.288,0.648-0.589,0.832-0.902
				c0.184-0.314,0.275-0.587,0.275-0.822c0-0.266-0.082-0.471-0.246-0.617c-0.165-0.144-0.381-0.219-0.647-0.219
				c-0.247,0-0.438,0.057-0.57,0.171c-0.322,0.304-0.586,0.544-0.787,0.723c-0.204,0.178-0.426,0.345-0.665,0.499
				c-0.241,0.156-0.49,0.268-0.745,0.343c-0.258,0.071-0.541,0.107-0.851,0.107c-0.462,0-0.885-0.112-1.268-0.341
				c-0.383-0.228-0.69-0.566-0.921-1.017c-0.231-0.45-0.35-0.969-0.356-1.558h5.071C349.814,760.043,350.34,759.946,350.713,759.754
				z M344.064,758.571c0.089-0.874,0.34-1.535,0.754-1.982c0.415-0.447,0.945-0.669,1.592-0.669c0.678,0,1.224,0.22,1.639,0.659
				c0.414,0.44,0.654,1.104,0.717,1.991H344.064z"/>
			<path id="XMLID_936_" style="fill:#3C3C3C;" d="M360.932,750.279c-0.392,0-0.695,0.136-0.907,0.408
				c-0.212,0.271-0.319,0.674-0.319,1.205v3.828c-0.486-0.53-0.986-0.926-1.5-1.183c-0.512-0.255-1.143-0.384-1.89-0.384
				c-1.292,0-2.333,0.453-3.125,1.357c-0.792,0.905-1.186,2.17-1.186,3.791c0,0.766,0.1,1.478,0.299,2.137
				c0.199,0.659,0.492,1.231,0.879,1.719c0.386,0.487,0.844,0.863,1.372,1.126c0.528,0.263,1.103,0.393,1.724,0.393
				c0.469,0,0.901-0.063,1.297-0.195c0.396-0.129,0.762-0.319,1.102-0.57c0.338-0.249,0.682-0.574,1.029-0.973v0.257
				c0,0.475,0.116,0.84,0.348,1.097c0.231,0.257,0.524,0.385,0.879,0.385c0.361,0,0.655-0.124,0.883-0.37
				c0.229-0.247,0.342-0.617,0.342-1.111V751.76c0-0.488-0.105-0.855-0.318-1.106C361.626,750.404,361.324,750.279,360.932,750.279z
				 M359.227,761.227c-0.225,0.489-0.525,0.853-0.902,1.091c-0.377,0.238-0.793,0.357-1.25,0.357c-0.449,0-0.863-0.126-1.242-0.378
				c-0.381-0.248-0.681-0.62-0.898-1.114c-0.219-0.494-0.328-1.092-0.328-1.795c0-0.665,0.103-1.249,0.309-1.753
				c0.206-0.504,0.496-0.89,0.869-1.158c0.373-0.269,0.799-0.404,1.272-0.404c0.456,0,0.875,0.132,1.259,0.393
				c0.383,0.264,0.688,0.644,0.912,1.14c0.225,0.498,0.337,1.092,0.337,1.782C359.563,760.121,359.451,760.734,359.227,761.227z"/>
			<path id="XMLID_933_" style="fill:#3C3C3C;" d="M375.941,754.766c-0.65-0.407-1.404-0.611-2.266-0.611
				c-0.747,0-1.375,0.135-1.881,0.403c-0.507,0.269-1.004,0.657-1.491,1.163v-3.961c0-0.475-0.108-0.839-0.323-1.097
				c-0.215-0.256-0.521-0.384-0.921-0.384c-0.38,0-0.677,0.135-0.889,0.403c-0.212,0.269-0.317,0.666-0.317,1.191v11.322
				c0,0.487,0.109,0.856,0.328,1.107c0.218,0.25,0.511,0.374,0.878,0.374c0.361,0,0.659-0.124,0.892-0.374
				c0.234-0.251,0.352-0.62,0.352-1.107v-0.257c0.284,0.328,0.515,0.577,0.689,0.741c0.175,0.165,0.386,0.325,0.632,0.479
				c0.247,0.156,0.546,0.28,0.897,0.375c0.352,0.096,0.727,0.142,1.126,0.142c0.651,0,1.249-0.131,1.79-0.393
				c0.541-0.263,1.002-0.636,1.383-1.117c0.379-0.48,0.669-1.05,0.869-1.704c0.199-0.656,0.299-1.375,0.299-2.16
				c0-1.064-0.18-1.985-0.537-2.76C377.093,755.768,376.59,755.176,375.941,754.766z M374.678,761.824
				c-0.472,0.567-1.034,0.851-1.686,0.851c-0.767,0-1.386-0.278-1.857-0.833c-0.472-0.554-0.707-1.346-0.707-2.379
				c0-0.703,0.11-1.31,0.332-1.818c0.222-0.51,0.525-0.899,0.912-1.168c0.385-0.269,0.826-0.404,1.32-0.404
				c0.48,0,0.902,0.136,1.264,0.404c0.36,0.268,0.639,0.65,0.835,1.144c0.196,0.493,0.294,1.083,0.294,1.767
				C375.385,760.445,375.148,761.257,374.678,761.824z"/>
			<path id="XMLID_931_" style="fill:#3C3C3C;" d="M387.053,754.292c-0.18-0.105-0.367-0.157-0.564-0.157
				c-0.273,0-0.484,0.048-0.633,0.143c-0.148,0.093-0.289,0.277-0.422,0.55c-0.133,0.272-0.282,0.65-0.446,1.13l-2.08,5.936
				l-2.194-6.383c-0.146-0.443-0.313-0.783-0.503-1.021c-0.19-0.237-0.473-0.356-0.846-0.356c-0.216,0-0.423,0.057-0.622,0.172
				c-0.199,0.113-0.355,0.266-0.471,0.456c-0.113,0.188-0.171,0.395-0.171,0.616c0,0.209,0.099,0.546,0.295,1.006l3.191,8.036
				l-0.237,0.58c-0.178,0.424-0.334,0.745-0.471,0.962c-0.137,0.221-0.289,0.374-0.46,0.462c-0.171,0.09-0.406,0.134-0.704,0.134
				c-0.119,0-0.262-0.019-0.426-0.057c-0.133-0.039-0.27-0.059-0.41-0.059c-0.353,0-0.621,0.082-0.801,0.243
				c-0.182,0.161-0.272,0.392-0.272,0.688c0,0.437,0.19,0.737,0.57,0.903c0.379,0.164,0.949,0.246,1.709,0.246
				c0.779,0,1.398-0.118,1.858-0.356c0.459-0.236,0.827-0.578,1.105-1.022c0.279-0.443,0.564-1.054,0.855-1.832l3.382-8.853
				c0.082-0.228,0.151-0.453,0.208-0.674c0.059-0.223,0.098-0.394,0.125-0.514c0-0.196-0.051-0.383-0.148-0.56
				C387.373,754.537,387.233,754.396,387.053,754.292z"/>
		</g>
		<g id="XMLID_365_">
			<g id="XMLID_380_">
				<path id="XMLID_928_" style="fill:#3C3C3C;" d="M422.9,750.271c-0.854,0-1.526,0.11-2.017,0.327
					c-0.491,0.219-0.843,0.566-1.047,1.044c-0.207,0.481-0.306,1.124-0.306,1.938v0.779h-0.619c-0.869,0-1.304,0.308-1.304,0.932
					c0,0.278,0.105,0.506,0.314,0.678c0.211,0.178,0.505,0.262,0.893,0.262h0.715v6.871c0,0.511,0.119,0.9,0.363,1.168
					c0.247,0.273,0.551,0.406,0.918,0.406c0.389,0,0.701-0.134,0.942-0.406c0.249-0.267,0.369-0.657,0.369-1.168v-6.871h0.633
					c0.465,0,0.827-0.057,1.089-0.172c0.266-0.113,0.393-0.385,0.393-0.804c0-0.599-0.49-0.896-1.482-0.896h-0.633v-0.617
					c0-0.516,0.068-0.909,0.195-1.185c0.139-0.274,0.438-0.415,0.905-0.415c0.171,0,0.386,0.022,0.623,0.055
					c0.249,0.042,0.428,0.06,0.527,0.06c0.215,0,0.403-0.087,0.558-0.256c0.161-0.172,0.24-0.377,0.24-0.615
					C425.173,750.64,424.42,750.271,422.9,750.271z"/>
				<path id="XMLID_926_" style="fill:#3C3C3C;" d="M431.157,754.538c-0.513-0.273-1.036-0.408-1.585-0.408
					c-0.547,0-0.978,0.135-1.31,0.408c-0.324,0.273-0.641,0.674-0.948,1.208c-0.022-0.534-0.128-0.935-0.317-1.208
					c-0.191-0.273-0.5-0.408-0.934-0.408c-0.841,0-1.261,0.583-1.261,1.749v7.223c0,0.517,0.124,0.91,0.36,1.174
					c0.239,0.27,0.545,0.4,0.927,0.4c0.379,0,0.691-0.129,0.938-0.394c0.241-0.261,0.374-0.656,0.374-1.18v-2.168
					c0-0.778,0.022-1.44,0.071-1.982c0.054-0.538,0.143-1.009,0.272-1.404c0.134-0.389,0.322-0.681,0.565-0.886
					c0.239-0.195,0.552-0.298,0.932-0.298c0.274,0,0.598,0.059,0.963,0.173c0.361,0.117,0.593,0.18,0.692,0.18
					c0.252,0,0.486-0.103,0.706-0.312c0.216-0.201,0.326-0.467,0.326-0.781C431.929,755.175,431.673,754.812,431.157,754.538z"/>
				<path id="XMLID_922_" style="fill:#3C3C3C;" d="M440.897,759.751c0.373-0.195,0.562-0.617,0.562-1.267
					c0-0.705-0.181-1.393-0.542-2.073c-0.355-0.678-0.905-1.231-1.629-1.654c-0.726-0.432-1.596-0.645-2.607-0.645
					c-0.781,0-1.49,0.125-2.128,0.373c-0.643,0.25-1.177,0.608-1.612,1.079c-0.441,0.472-0.774,1.029-0.999,1.688
					c-0.23,0.656-0.348,1.368-0.348,2.134c0,1.627,0.468,2.917,1.392,3.869c0.923,0.949,2.217,1.422,3.887,1.422
					c0.726,0,1.372-0.096,1.932-0.286c0.559-0.186,1.023-0.429,1.398-0.714c0.372-0.291,0.647-0.589,0.835-0.906
					c0.179-0.311,0.268-0.584,0.268-0.819c0-0.267-0.077-0.47-0.243-0.617c-0.168-0.148-0.381-0.222-0.649-0.222
					c-0.243,0-0.434,0.061-0.568,0.174c-0.323,0.303-0.588,0.544-0.79,0.719c-0.204,0.182-0.422,0.348-0.664,0.5
					c-0.24,0.155-0.491,0.271-0.745,0.341c-0.257,0.077-0.538,0.11-0.85,0.11c-0.465,0-0.884-0.111-1.269-0.339
					c-0.385-0.231-0.689-0.57-0.925-1.017c-0.23-0.449-0.346-0.971-0.354-1.559h5.074C440,760.041,440.524,759.944,440.897,759.751z
					 M434.248,758.566c0.087-0.873,0.341-1.531,0.755-1.979c0.415-0.448,0.946-0.668,1.592-0.668c0.682,0,1.223,0.218,1.641,0.66
					c0.416,0.437,0.651,1.102,0.714,1.986H434.248z"/>
				<path id="XMLID_919_" style="fill:#3C3C3C;" d="M451.685,759.751c0.37-0.195,0.561-0.617,0.561-1.267
					c0-0.705-0.186-1.393-0.545-2.073c-0.355-0.678-0.901-1.231-1.621-1.654c-0.735-0.432-1.604-0.645-2.613-0.645
					c-0.778,0-1.491,0.125-2.129,0.373c-0.642,0.25-1.179,0.608-1.614,1.079c-0.438,0.472-0.77,1.029-0.996,1.688
					c-0.231,0.656-0.348,1.368-0.348,2.134c0,1.627,0.465,2.917,1.389,3.869c0.928,0.949,2.22,1.422,3.888,1.422
					c0.725,0,1.376-0.096,1.934-0.286c0.556-0.186,1.025-0.429,1.396-0.714c0.375-0.291,0.653-0.589,0.83-0.906
					c0.187-0.311,0.273-0.584,0.273-0.819c0-0.267-0.075-0.47-0.24-0.617c-0.167-0.148-0.382-0.222-0.65-0.222
					c-0.242,0-0.433,0.061-0.568,0.174c-0.324,0.303-0.589,0.544-0.788,0.719c-0.204,0.182-0.422,0.348-0.664,0.5
					c-0.244,0.155-0.491,0.271-0.75,0.341c-0.252,0.077-0.537,0.11-0.845,0.11c-0.466,0-0.889-0.111-1.272-0.339
					c-0.382-0.231-0.689-0.57-0.921-1.017c-0.229-0.449-0.349-0.971-0.354-1.559h5.073
					C450.785,760.041,451.31,759.944,451.685,759.751z M445.036,758.566c0.084-0.873,0.338-1.531,0.751-1.979
					c0.417-0.448,0.947-0.668,1.593-0.668c0.681,0,1.222,0.218,1.643,0.66c0.411,0.437,0.651,1.102,0.715,1.986H445.036z"/>
				<path id="XMLID_390_" style="fill:#3C3C3C;" d="M461.303,754.766c-0.672-0.41-1.412-0.617-2.207-0.617
					c-0.664,0-1.264,0.143-1.782,0.427c-0.53,0.282-1.038,0.724-1.524,1.324v-0.312c0-0.474-0.113-0.83-0.349-1.084
					c-0.23-0.249-0.526-0.374-0.896-0.374c-0.373,0-0.67,0.125-0.885,0.364c-0.214,0.248-0.32,0.611-0.32,1.108v11.193
					c0,0.567,0.082,0.992,0.233,1.291c0.163,0.293,0.482,0.44,0.972,0.44c0.828,0,1.244-0.574,1.244-1.71v-3.894
					c0.459,0.573,0.938,1.015,1.441,1.307c0.502,0.299,1.127,0.447,1.865,0.447c0.616,0,1.186-0.122,1.727-0.363
					c0.534-0.244,0.996-0.596,1.39-1.046c0.392-0.453,0.705-1.012,0.929-1.68c0.224-0.67,0.336-1.405,0.336-2.202
					c0-1.083-0.195-2.018-0.586-2.813C462.501,755.781,461.974,755.18,461.303,754.766z M460.541,761.172
					c-0.219,0.5-0.513,0.874-0.884,1.127c-0.367,0.246-0.768,0.372-1.197,0.372c-0.727,0-1.325-0.286-1.813-0.858
					c-0.49-0.573-0.735-1.38-0.735-2.406c0-1.098,0.247-1.927,0.739-2.493c0.49-0.56,1.095-0.844,1.809-0.844
					c0.45,0,0.865,0.134,1.232,0.397c0.367,0.261,0.657,0.636,0.866,1.128c0.208,0.489,0.314,1.078,0.314,1.762
					C460.873,760.065,460.762,760.67,460.541,761.172z"/>
				<path id="XMLID_389_" style="fill:#3C3C3C;" d="M466.061,754.13c-0.381,0-0.684,0.127-0.928,0.392
					c-0.233,0.26-0.355,0.645-0.355,1.154v7.428c0,0.501,0.122,0.889,0.355,1.166c0.243,0.273,0.547,0.406,0.928,0.406
					c0.381,0,0.691-0.131,0.941-0.4c0.246-0.264,0.37-0.656,0.37-1.172v-7.502c0-0.459-0.124-0.82-0.37-1.08
					C466.753,754.257,466.442,754.13,466.061,754.13z"/>
				<path id="XMLID_388_" style="fill:#3C3C3C;" d="M466.089,750.385c-0.348,0-0.652,0.122-0.914,0.356
					c-0.266,0.239-0.396,0.542-0.396,0.909c0,0.405,0.129,0.715,0.388,0.938c0.254,0.221,0.561,0.334,0.923,0.334
					c0.352,0,0.652-0.113,0.906-0.335c0.251-0.225,0.378-0.536,0.378-0.937c0-0.411-0.131-0.727-0.391-0.945
					C466.725,750.492,466.429,750.385,466.089,750.385z"/>
				<path id="XMLID_387_" style="fill:#3C3C3C;" d="M477.836,762.179l-2.659-4.183l1.377-1.263c0.701-0.633,1.055-1.143,1.055-1.521
					c0-0.308-0.109-0.567-0.32-0.773c-0.222-0.205-0.489-0.309-0.815-0.309c-0.27,0-0.5,0.069-0.689,0.208
					c-0.194,0.138-0.465,0.402-0.827,0.778l-2.916,3.063v-6.294c0-0.527-0.119-0.931-0.354-1.201
					c-0.236-0.274-0.55-0.412-0.949-0.412c-0.408,0-0.73,0.148-0.953,0.453c-0.217,0.303-0.331,0.74-0.331,1.313v11.064
					c0,0.517,0.117,0.91,0.344,1.174c0.226,0.27,0.542,0.4,0.94,0.4c0.341,0,0.649-0.134,0.906-0.406
					c0.264-0.267,0.396-0.65,0.396-1.149v-2.065l1.408-1.328l2.284,3.766c0.29,0.444,0.527,0.754,0.697,0.928
					c0.17,0.175,0.417,0.256,0.733,0.256c0.362,0,0.661-0.117,0.886-0.353c0.227-0.242,0.342-0.563,0.342-0.976
					c0-0.143-0.047-0.304-0.131-0.462C478.175,762.723,478.029,762.492,477.836,762.179z"/>
				<path id="XMLID_386_" style="fill:#3C3C3C;" d="M481.344,761.816c-0.4,0-0.733,0.139-1.008,0.418
					c-0.272,0.277-0.41,0.61-0.41,0.996c0,0.459,0.145,0.815,0.429,1.064c0.286,0.255,0.622,0.381,1.014,0.381
					c0.379,0,0.711-0.126,0.998-0.386c0.279-0.252,0.422-0.607,0.422-1.059c0-0.39-0.143-0.727-0.422-1.002
					C482.079,761.955,481.741,761.816,481.344,761.816z"/>
				<path id="XMLID_385_" style="fill:#3C3C3C;" d="M493.163,760.334c-0.267,0-0.493,0.086-0.676,0.249
					c-0.182,0.166-0.351,0.393-0.509,0.684c-0.284,0.495-0.61,0.861-0.986,1.102c-0.37,0.24-0.815,0.36-1.336,0.36
					c-0.384,0-0.74-0.072-1.064-0.226c-0.322-0.149-0.596-0.367-0.826-0.654c-0.229-0.288-0.403-0.637-0.521-1.044
					c-0.12-0.409-0.183-0.859-0.183-1.348c0-1.034,0.235-1.858,0.703-2.454c0.47-0.6,1.092-0.898,1.853-0.898
					c0.533,0,0.971,0.12,1.314,0.363c0.35,0.236,0.679,0.6,0.996,1.078c0.174,0.253,0.335,0.431,0.479,0.543
					c0.144,0.109,0.322,0.166,0.541,0.166c0.323,0,0.604-0.109,0.839-0.324c0.23-0.216,0.343-0.48,0.343-0.787
					c0-0.307-0.101-0.636-0.308-0.987c-0.204-0.349-0.503-0.678-0.89-0.992c-0.393-0.308-0.864-0.563-1.425-0.759
					c-0.564-0.197-1.179-0.295-1.852-0.295c-1.078,0-2.016,0.222-2.795,0.67c-0.777,0.446-1.374,1.078-1.781,1.893
					c-0.415,0.817-0.619,1.757-0.619,2.824c0,1.57,0.45,2.823,1.346,3.76c0.9,0.932,2.151,1.401,3.758,1.401
					c0.75,0,1.43-0.104,2.03-0.307c0.603-0.201,1.101-0.472,1.495-0.804c0.397-0.332,0.694-0.68,0.886-1.05
					c0.194-0.366,0.291-0.714,0.291-1.034c0-0.271-0.106-0.529-0.317-0.77C493.743,760.457,493.479,760.334,493.163,760.334z"/>
				<path id="XMLID_382_" style="fill:#3C3C3C;" d="M504.063,755.591c-0.461-0.465-1.006-0.828-1.644-1.079
					c-0.641-0.257-1.354-0.382-2.138-0.382c-0.772,0-1.479,0.125-2.122,0.374c-0.638,0.253-1.18,0.608-1.631,1.07
					c-0.45,0.461-0.797,1.019-1.039,1.672c-0.234,0.653-0.358,1.373-0.358,2.159c0,0.776,0.121,1.487,0.351,2.131
					c0.243,0.643,0.591,1.2,1.052,1.677c0.456,0.468,1.003,0.833,1.626,1.082c0.628,0.255,1.336,0.383,2.122,0.383
					c0.788,0,1.499-0.128,2.138-0.375c0.63-0.252,1.177-0.611,1.632-1.08c0.458-0.466,0.803-1.026,1.05-1.68
					c0.233-0.653,0.355-1.368,0.355-2.138c0-0.782-0.12-1.491-0.354-2.143C504.866,756.62,504.521,756.065,504.063,755.591z
					 M502.156,761.857c-0.464,0.596-1.091,0.892-1.874,0.892c-0.518,0-0.968-0.138-1.354-0.404
					c-0.384-0.269-0.678-0.655-0.886-1.166c-0.207-0.507-0.31-1.095-0.31-1.773c0-0.686,0.106-1.285,0.315-1.8
					c0.209-0.514,0.503-0.901,0.89-1.163c0.388-0.262,0.835-0.394,1.344-0.394c0.783,0,1.41,0.292,1.874,0.888
					c0.463,0.588,0.697,1.41,0.697,2.469C502.853,760.446,502.619,761.267,502.156,761.857z"/>
				<path id="XMLID_381_" style="fill:#3C3C3C;" d="M519.942,754.567c-0.513-0.276-1.128-0.419-1.834-0.419
					c-0.609,0-1.162,0.129-1.662,0.386c-0.501,0.258-0.971,0.652-1.41,1.181c-0.307-0.521-0.69-0.916-1.16-1.177
					c-0.467-0.259-1.026-0.39-1.678-0.39c-0.631,0-1.196,0.126-1.713,0.386c-0.51,0.249-0.991,0.646-1.444,1.181v-0.245
					c0-0.418-0.118-0.746-0.354-0.985c-0.24-0.231-0.535-0.354-0.892-0.354c-0.363,0-0.66,0.125-0.889,0.382
					c-0.225,0.251-0.336,0.622-0.336,1.111v7.419c0,0.538,0.124,0.946,0.376,1.224c0.25,0.273,0.571,0.412,0.967,0.412
					c0.397,0,0.716-0.139,0.965-0.412c0.239-0.277,0.362-0.686,0.362-1.224v-3.502c0-1.094,0.138-1.931,0.405-2.507
					c0.27-0.591,0.826-0.881,1.677-0.881c0.422,0,0.734,0.115,0.931,0.352c0.194,0.227,0.316,0.529,0.362,0.883
					c0.043,0.362,0.064,0.871,0.064,1.524v4.131c0,0.546,0.125,0.95,0.372,1.227c0.237,0.273,0.559,0.408,0.951,0.408
					c0.406,0,0.727-0.136,0.977-0.408c0.249-0.277,0.369-0.682,0.369-1.227v-3.446c0-1.111,0.099-1.885,0.284-2.324
					c0.174-0.335,0.414-0.613,0.721-0.813c0.308-0.2,0.633-0.307,0.975-0.307c0.422,0,0.74,0.115,0.953,0.344
					c0.205,0.227,0.335,0.51,0.382,0.847c0.046,0.335,0.069,0.778,0.069,1.338v4.361c0,0.538,0.126,0.946,0.376,1.224
					c0.251,0.273,0.57,0.412,0.965,0.412c0.404,0,0.733-0.136,0.979-0.408c0.246-0.277,0.367-0.682,0.367-1.227v-5.063
					c0-1.007-0.109-1.745-0.33-2.217C520.836,755.246,520.453,754.846,519.942,754.567z"/>
			</g>
			<g id="XMLID_366_">
				<path id="XMLID_379_" style="fill:#3C3C3C;" d="M394.645,758.777c-0.002-0.006-0.002-0.01-0.002-0.017
					C394.643,758.768,394.643,758.771,394.645,758.777z"/>
				<path id="XMLID_378_" style="fill:#3C3C3C;" d="M394.775,759.606c0.002,0,0.002,0,0.002,0c-0.049-0.235-0.088-0.471-0.117-0.701
					C394.689,759.138,394.728,759.373,394.775,759.606z"/>
				<path id="XMLID_377_" style="fill:#3C3C3C;" d="M395.634,762.013c-0.006-0.01-0.011-0.021-0.017-0.033
					C395.623,761.991,395.628,762.003,395.634,762.013z"/>
				<path id="XMLID_376_" style="fill:#3C3C3C;" d="M395.552,761.852c-0.022-0.044-0.044-0.09-0.065-0.134
					C395.508,761.766,395.529,761.809,395.552,761.852z"/>
				<path id="XMLID_375_" style="fill:#3C3C3C;" d="M395.017,760.533c0.127,0.4,0.28,0.788,0.457,1.158
					c-0.181-0.378-0.33-0.767-0.454-1.158C395.02,760.533,395.018,760.533,395.017,760.533z"/>
				<path id="XMLID_374_" style="fill:#3C3C3C;" d="M403.387,747.955l-0.121-0.415c0.478-0.1,0.838-0.526,0.838-1.034
					c0-0.582-0.475-1.055-1.057-1.055c-0.584,0-1.057,0.473-1.057,1.055c0,0.508,0.359,0.934,0.836,1.034l0.135,0.463
					c-1.635,0.225-2.935,0.862-2.935,0.862l0.23,0.705c0.988-0.329,1.846-0.529,2.624-0.613c0.762-0.081,1.335-0.116,1.802-0.116
					c0.502,0,0.871,0.04,1.295,0.11l0.12-0.762C406.097,748.19,404.926,747.829,403.387,747.955z"/>
				<path id="XMLID_373_" style="fill:#3C3C3C;" d="M394.933,751.967c-0.027,0.038-0.795,0.744-1.401,2.048
					c-0.025-0.041-0.056-0.081-0.09-0.119c-0.182-0.198-0.435-0.3-0.758-0.294c-0.004,0-0.01,0-0.016,0
					c-0.199,0-0.336-0.066-0.426-0.148c0.089-0.113,0.143-0.257,0.143-0.413c0-0.369-0.3-0.67-0.67-0.67
					c-0.368,0-0.668,0.301-0.668,0.67c0,0.37,0.3,0.668,0.668,0.668c0.059,0,0.113-0.009,0.168-0.019
					c0.164,0.182,0.425,0.342,0.807,0.334c0.197-0.002,0.342,0.049,0.438,0.155c0.111,0.121,0.148,0.296,0.16,0.427
					c-0.001,0.003-0.001,0.006-0.003,0.006c-0.436,1.189-0.311,2.67-0.311,2.67l1.058,0.041c0.021-0.538,0.099-1.482,0.372-2.23
					c0.525-1.45,1.186-2.355,1.212-2.394l0.006-0.008c0.038-0.05,0.075-0.097,0.113-0.143l-0.314-0.227L394.933,751.967z"/>
				<path id="XMLID_372_" style="fill:#3C3C3C;" d="M413.881,749.725c-0.368,0-0.669,0.299-0.669,0.668
					c0,0.059,0.009,0.113,0.023,0.166c-0.184,0.166-0.343,0.428-0.337,0.81c0.003,0.197-0.048,0.34-0.154,0.437
					c-0.085,0.075-0.191,0.115-0.296,0.141c-0.787-1.102-1.756-1.775-1.756-1.775l-0.759,0.813c0.573,0.522,1.159,1.175,1.728,1.99
					c0.394,0.563,0.799,1.29,1.136,2.015l1.024-0.486c0,0-0.468-1.155-1.126-2.191c0.114-0.04,0.229-0.103,0.331-0.192
					c0.2-0.181,0.299-0.436,0.293-0.758c-0.002-0.208,0.066-0.349,0.148-0.441c0.114,0.087,0.257,0.143,0.412,0.143
					c0.371,0,0.67-0.3,0.67-0.67C414.551,750.023,414.252,749.725,413.881,749.725z"/>
				<path id="XMLID_371_" style="fill:#3C3C3C;" d="M411.224,758.927c-1.409,0.686-3.729,1.594-6.78,2.019
					c-1.199,0.166-2.359,0.228-3.429,0.228c-1.391,0-2.62-0.104-3.563-0.223c-1.076-0.136-1.917-0.302-2.433-0.418
					c0.124,0.392,0.273,0.78,0.454,1.158c0.003,0.01,0.008,0.021,0.013,0.027c0.021,0.044,0.043,0.09,0.065,0.134
					c0.021,0.044,0.043,0.087,0.065,0.127c0.006,0.012,0.011,0.023,0.017,0.033c0.303,0.57,0.667,1.095,1.081,1.549
					c1.44,1.575,2.906,1.823,2.92,1.826l0.023,0.003l0.021,0.008c0.014,0.005,1.314,0.424,3.291,0.424
					c1.945,0,3.854-0.392,5.674-1.166c1.348-0.69,2.622-1.736,3.254-2.67c0.488-0.723,0.842-1.494,1.05-2.294
					c0.111-0.426,0.199-1.108,0.148-1.825C412.699,758.134,412.072,758.514,411.224,758.927z"/>
				<path id="XMLID_367_" style="fill:#3C3C3C;" d="M405.925,749.514c-0.423-0.069-0.763-0.109-1.243-0.109
					c-0.447,0-1.002,0.036-1.742,0.113c-0.744,0.078-1.572,0.273-2.533,0.597c-1.348,0.451-2.566,1.159-3.526,2.048l-0.032,0.03
					c-0.143,0.13-0.439,0.406-0.781,0.841c-0.041,0.06-0.652,0.925-1.135,2.253c-0.361,0.995-0.346,2.443-0.346,2.46v0.003
					c0,0.339,0.02,0.677,0.057,1.011c0,0.008,0,0.012,0.002,0.017c0.004,0.043,0.012,0.084,0.016,0.127
					c0.029,0.231,0.068,0.466,0.118,0.701c0.7,0.179,4.878,1.153,9.548,0.503c2.927-0.407,5.149-1.273,6.499-1.927
					c1.121-0.544,1.842-1.036,2.12-1.238c-0.277-1.028-1.042-2.641-1.742-3.647C409.197,750.432,407.035,749.696,405.925,749.514z
					 M400.095,757.929c-1.555,0-2.815-1.259-2.815-2.814c0-1.556,1.261-2.817,2.815-2.817c1.557,0,2.817,1.262,2.817,2.817
					C402.912,756.67,401.651,757.929,400.095,757.929z M408.336,755.854c-0.962,0-1.742-0.782-1.742-1.744
					c0-0.963,0.78-1.743,1.742-1.743c0.961,0,1.743,0.78,1.743,1.743C410.079,755.071,409.297,755.854,408.336,755.854z"/>
			</g>
		</g>
	</g>
</g>
</svg>
