<svg xmlns="http://www.w3.org/2000/svg" xmlns:xlink="http://www.w3.org/1999/xlink" version="1.1" x="0px" y="0px" xml:space="preserve" viewBox="195.35 26.85 157.96 221.35">
<g id="OBJECTS">
	<g>
		<path style="fill:#ffffff;" d="M350.298,223.461c-1.298-0.278-10.754,0-11.496-0.278c-0.742-0.278-3.245-0.464-3.245-0.464    s-2.503-8.344-3.245-11.681c-0.742-3.338-2.132-14.37-3.337-17.058c-1.205-2.688-2.874-6.768-2.874-6.768s0.093-4.172-0.371-5.841    c-0.464-1.669-3.523-4.821-3.986-5.933c-0.464-1.113-3.894-11.403-4.914-13.535c-1.02-2.132-6.304-12.423-6.675-13.999    c-0.371-1.576-1.854-4.357-1.854-4.357l-1.298-1.854l1.298-3.801c0,0,1.298-1.02,1.298-2.132s0.464-5.099,0.464-5.099    s2.225-4.635,2.04-7.417c-0.185-2.781-0.742-14.277-0.742-15.575c0-1.298-0.278-7.139-1.854-11.589    c-1.576-4.45-4.45-11.681-4.45-11.681s1.483-3.43,1.576-4.079c0.093-0.649-0.093-3.43-0.093-4.079    c0-0.649,0.371-5.562-0.093-7.046c-0.464-1.483-1.391-3.245-1.391-3.245s0.927-7.695,1.205-10.847    c0.278-3.152,1.854-11.867,1.947-12.145c0.093-0.278,2.04-1.205,2.596-2.225c0.556-1.02,1.205-2.318,2.132-3.059    c0.927-0.742,3.43-2.503,3.523-2.967c0.093-0.464,0-1.483,0-1.483s-4.543,2.596-5.284,2.41c-0.742-0.185-1.205-0.649-1.205-0.649    s3.059-1.298,3.152-1.762c0.093-0.464,0-1.02,0-1.02l-2.132,0.371c0,0,2.503-1.762,2.225-2.225    c-0.278-0.464-1.298-0.649-1.298-0.649L309.692,31c0,0,1.483-2.41,1.854-2.874c0.371-0.463-0.43-1.278-0.43-1.278    s-2.782,2.288-2.872,2.513c-0.09,0.224-0.897,2.916-1.077,3.186c-0.179,0.269-2.064,4.308-2.423,6.327    c-0.359,2.019-1.167,3.455-1.211,4.532c-0.045,1.077-0.09,2.692-1.526,6.416c-1.436,3.724-3.949,9.512-4.038,11.532    c-0.987,0.045-1.884,0-1.884,0s-5.151,0.427-7.252,3.579c-2.101,3.152-2.658,5.933-2.658,5.933l1.051,4.141    c0,0-0.989,0.618-0.68,2.04c0.309,1.422,1.545,3.708,1.978,4.017c0.433,0.309,0.989,0.494,0.989,0.494s-0.989,2.658-1.731,2.967    c-0.742,0.309-2.287,0-2.287,0s-1.854-0.124-3.461,1.174s-2.41,3.214-2.41,3.214l-10.692,7.478l-6.798,4.141l0.927,0.865    c0,0-9.024,4.512-10.383,5.253c-1.36,0.742-5.439,1.236-11.001,4.759c-5.563,3.523-7.726,4.821-7.726,4.821    s-4.697-0.309-5.377-0.309c-0.68,0-3.028,0.803-3.276,0.989c-0.247,0.186-1.112,0.865-1.112,0.865s-1.854-0.062-2.163,0.247    c-0.309,0.309-0.742,1.051-0.742,1.051s-1.36,0.371-1.607,0.803c-0.247,0.433-1.483,2.843-1.298,3.214    c0.185,0.371,0.865,0.556,0.865,0.556l0.927-0.556c0,0,0.989,0.186,1.298-0.247c0.309-0.433,0.618-1.236,0.618-1.236h1.236    c0,0,2.04,0.927,3.956,0.618c1.916-0.309,3.461,0.556,5.13,0.124c1.669-0.433,2.348-1.978,2.348-1.978s9.827-2.472,12.114-2.719    c2.287-0.247,6.304-1.051,7.54-1.978c1.236-0.927,6.49-4.388,8.096-5.13c1.607-0.742,4.635-1.916,4.635-1.916    s2.04,2.163,2.843,1.73c0.803-0.433,2.967-2.967,4.203-3.523c1.236-0.556,3.77-1.051,3.77-1.051s0.68,3.09,2.04,4.326    c1.36,1.236,0.185,2.843,1.545,3.894c1.36,1.051,0.433,4.141,1.607,4.079c1.174-0.062-1.545,1.545-0.803,2.287    c0.742,0.742,0.185,3.214-1.854,4.45c-2.04,1.236-5.377,3.77-5.871,6.428c-0.494,2.658-2.101,6.49-3.399,7.54    c-1.298,1.051-3.708,3.029-3.585,3.832c0.124,0.804-2.658,1.792-4.203,3.708c-1.545,1.916-6.119,5.995-7.293,7.355    c-1.174,1.36-8.529,8.035-8.529,8.035h-2.101c0,0-1.545-3.09-4.264-5.254c-2.719-2.163-10.322-4.141-11.805-4.45    c-1.483-0.309-6.984-3.113-6.984-3.113s0.433-3.005,0.618-3.562c0.185-0.556-0.433-2.658-0.989-3.028    c-0.556-0.371-2.967-0.742-2.967-0.742s-0.223-1.236-0.761-1.174c-0.537,0.062-1.279,1.113-1.279,1.113l-2.04,0.618    c0,0-5.562,0.309-7.973,0.124c-2.41-0.185-2.101-1.174-2.101-1.174s-0.865-0.247-1.236,0.309    c-0.371,0.556-0.556,0.927-0.556,0.927l-2.967,0.309c0,0-0.618-0.68-1.051-0.494c-0.433,0.185-0.68,1.422-0.68,1.422    s-2.225,1.36-2.781,2.41c-0.556,1.051-0.556,2.735,0.927,3.561c1.483,0.827,6.242,0.641,8.838,1.445    c2.596,0.803,1.36,2.163,2.534,2.596c1.174,0.433,3.214-0.185,3.214-0.185s3.399,1.916,4.141,1.792    c0.742-0.124,0.803,1.174,1.483,1.298c0.68,0.124,5.068,2.225,6.057,3.461c0.989,1.236,6.119,5.439,9.209,8.035    c3.09,2.596,6.613,3.09,6.613,3.09s4.821,4.017,6.737,4.079s6.613-0.556,6.613-0.556s11.557-5.871,14.586-7.293    c3.029-1.421,6.304-2.534,6.304-2.534s2.163,2.719,3.461,1.731c1.298-0.989,9.024-5.563,9.024-5.563s3.461,5.439,5.006,6.366    c1.545,0.927,0.433,2.719,2.349,3.585c1.916,0.865,4.573,1.978,4.573,1.978l1.978-0.803c0,0,3.276,3.585,6.737,6.304    c3.461,2.719,5.995,7.417,6.922,8.035c0.927,0.618,2.04,1.916,2.04,3.77c0,1.854,0.803,7.911,1.483,11.557    c0.68,3.646,7.169,17.491,8.375,19.53c1.205,2.04,1.205,7.324,2.225,8.436c1.02,1.112,1.576,6.582,1.947,7.88    c0.371,1.298,3.337,2.781,4.357,2.874s2.318,0,2.318,0l1.205-0.371l-0.371-1.576c0,0,1.947,0.556,2.318,0.185    c0.371-0.371,0-1.854,0-1.854s7.139-5.006,8.9-5.748c1.762-0.742,5.099-3.245,5.47-4.543    C353.635,225.223,351.596,223.739,350.298,223.461z"/>
		
			<ellipse transform="matrix(0.9732 -0.2298 0.2298 0.9732 -44.8193 77.3792)" style="fill:#ffffff;" cx="309.878" cy="231.156" rx="14.184" ry="14.184"/>
	</g>
</g>
</svg>