<svg xmlns="http://www.w3.org/2000/svg" xmlns:xlink="http://www.w3.org/1999/xlink" version="1.1" x="0px" y="0px" xml:space="preserve" viewBox="58.79 43.24 213.19 167.61">
<g id="OBJECTS">
	<path style="fill:#ffffff;" d="M270.665,194.227c0,0-4.363-1.366-9.983-1.558c-5.62-0.192-10.653,0.244-13.057-0.599   c-2.404-0.842-15.935-9.821-24.054-12.532c-8.119-2.711-10.879-2.045-10.879-2.045l-17.396-7.134l0.219-1.969   c0,0-1.933-1.283-5.998-2.486c-4.065-1.204-13.012-6.376-15.233-8.124c-2.221-1.749-5.012-0.172-5.012-0.172l-8.575-2.726   c0,0-1.991-4.022-3.824-3.78c-1.833,0.241-3.357,0.341-3.949-0.135c-0.592-0.476-5.219-7.478-5.219-7.478s-0.054-7.301-0.028-8.061   c0.026-0.76,9.714,0.526,14.596,0.064c4.882-0.462,7.752,0.092,13.916-2.282c6.164-2.374,15.649-4.027,19.917-4.337   c4.269-0.31,7.956-1.401,8.914-2.736c0.958-1.336,4.588-0.756,4.588-0.756s4.51,1.523,5.584,1.255   c1.074-0.267,2.315-0.985,2.315-0.985l-0.247-1.681c0,0,0.057-1.671-0.676-2.456c-0.734-0.785-6.051-5.377-7.093-6.021   c-1.042-0.644-2.551-1-4.562-0.004c-2.011,0.996-6.981,4.019-6.981,4.019l-6.395,0.237l-1.587,1.923c0,0-8.202-0.28-13.984-0.174   c-5.782,0.106-7.657,1.563-14.031,1.193c-6.374-0.37-11.697-4.81-16.714-4.83c-5.018-0.02-10.663,0.548-10.663,0.548l-4.096-0.292   l-1.608-1.88l-1.692,0.55l-0.985-2.315c0,0,1.67-4.353,1.292-6.647s-3.317-5.284-4.496-6.389c-1.179-1.105-5.019-4.416-9.581-4.427   c-4.562-0.011-8.337,3.661-8.168,7.621c0.169,3.959,1.401,7.955,1.401,7.955l0.236,1.985l-3.148-1.324c0,0-2.74-4.352-6.209-9.641   c-3.469-5.289-7.409-10.138-8.97-13.385c-1.562-3.247-6.759-11.332-7.912-13.196c-1.153-1.864-2.877-4.813-2.877-4.813   s1.513-5.2,0.882-9.213c2.245-1.985,3.704-4.829,3.814-8.038c0.214-6.25-4.747-11.491-11.081-11.708   c-6.333-0.217-11.641,4.674-11.855,10.924c-0.056,1.648,0.255,3.222,0.849,4.656c-0.442,0.489-0.897,1.062-1.064,1.648   c-0.345,1.205-0.879,3.468-0.146,4.253c0.733,0.785,0.98,2.467,1.86,3.409c0.88,0.943,3.369,3.765,5.915,4.916   c2.546,1.152,3.272,4.37,3.272,4.37s13.056,25.082,14.665,26.962c1.608,1.88,2.883,9.071,7.389,15.155   c4.506,6.085,8.944,14.144,9.767,16.757s3.774,9.709,7.945,16.695c4.171,6.986,11.711,17.736,12.743,18.684   c1.032,0.948,7.109,5.566,7.109,5.566l5.595,5.362c0,0,2.034,7.217,9.414,9.294c7.38,2.077,21.869,9.72,26.122,9.865   c4.253,0.146,7.139,0.244,7.139,0.244l3.005-3.395l13.88,3.212c0,0,6.883,3.277,16.274,4.358c9.391,1.082,27.34,0.935,27.34,0.935   s7.087,1.763,9.942,2.773c2.855,1.01,6.034,1.423,6.835,0.234s0.177-5.164,0.177-5.164l-2.2-2.356c0,0,11.664,1.311,12.591,0.887   c0.927-0.424,5.273-3.013,5.907-3.752C272.479,199.003,270.665,194.227,270.665,194.227z M233.726,199.185   c-1.484,0.196-11.202-3.708-12.665-4.127c-1.463-0.419-12.623-5.357-12.623-5.357s-8.745,0.07-10.208-0.349   c-1.463-0.419-8.466-4.476-8.466-4.476l16.07,1.781l0.938,1.387l18.238,6.781l11.771,2.742   C236.78,197.565,235.21,198.989,233.726,199.185z"/>
</g>
</svg>