<svg xmlns="http://www.w3.org/2000/svg" xmlns:xlink="http://www.w3.org/1999/xlink" version="1.1" x="0px" y="0px" xml:space="preserve" viewBox="181.88 166.46 112.89 258.86">
<g id="OBJECTS">
	<g>
		<path style="opacity:0.1;fill:#ffffff;" d="M289.152,414.998c0,5.696-24.014,10.314-53.638,10.314    c-29.623,0-53.637-4.617-53.637-10.314c0-5.695,24.014-10.313,53.637-10.313C265.138,404.685,289.152,409.303,289.152,414.998z"/>
		<path style="fill:#ffffff;" d="M287.019,237.017c-4.865-6.4-12.036-21.249-13.315-24.322l-23.812-9.729    c0,0-0.512-3.328,1.28-6.401c1.792-3.073,5.632-9.474,4.864-16.131c-0.768-6.657-2.302-11.778-8.96-13.57    c-6.658-1.793-17.154,2.304-16.386,12.546c0.768,10.242,1.024,10.754,1.792,12.802c0.768,2.048,0.256,8.449,0.256,8.449    s-14.338,7.937-25.091,7.424c0,0-0.512,6.913-1.536,9.473c-1.024,2.561-28.676,28.932-18.178,45.575    c10.498,16.643,14.85,19.203,14.85,19.203l-2.048,19.714l10.242,1.793c0,0-0.77,20.739-0.77,31.235    c0,10.498-7.68,52.489-4.864,70.154c0,0-4.354,7.936-11.01,9.984c-6.657,2.049-1.279,5.377,4.609,4.098    c5.888-1.281,22.019-3.328,23.556-6.4c1.536-3.074,1.536-14.338,3.072-17.412c1.536-3.072,0.511-36.613,2.047-46.598    c1.536-9.985,7.169-32.772,11.522-32.26c4.352,0.512,4.608,8.704,5.12,12.545c0.512,3.841,4.865,78.86,4.865,78.86    s0.001,5.889,4.609,5.633c4.608-0.256,5.633,2.049,10.498,4.096c4.864,2.049,14.593,1.023,11.52-3.072    c-3.072-4.096-8.191-3.328-10.496-10.24c-2.306-6.914,2.304-20.228,2.304-28.933c0-8.705-2.816-35.588-2.304-46.854    c0.512-11.266-0.256-21.763-0.256-21.763l14.337-0.513l-1.536-22.019c0,0,15.106-18.435,16.642-25.348    C295.98,252.123,291.885,243.417,287.019,237.017z M209,263.083c0,0-5.59-6.608-6.614-10.181    C201.362,249.33,209,241.45,209,241.45V263.083z M280.086,254.171c-0.768,2.56-7.086,7.639-7.086,7.639v-17.816    C273,243.995,280.854,251.611,280.086,254.171z"/>
	</g>
</g>
</svg>