<svg xmlns="http://www.w3.org/2000/svg" xmlns:xlink="http://www.w3.org/1999/xlink" version="1.1" x="0px" y="0px" xml:space="preserve" viewBox="60.74 287.11 117.76 179.16">
<g id="OBJECTS">
	<path style="fill:#ffffff;" d="M177.169,389.431c-0.189-0.568-1.895-1.042-2.653-1.8c-0.758-0.758-3.316-2.747-3.316-2.747   s-1.8-7.295-1.895-7.673c-0.095-0.379-2.653-10.042-5.779-15.536c-3.126-5.495-4.074-3.789-5.684-7.105   c-1.611-3.316-6.821-10.326-6.821-10.326V343.2c0,0-3.411-7.105-4.642-9c-1.232-1.895-4.831-6.537-6.253-8.621   c-1.421-2.084-7.768-6.063-9.379-6.537c-1.611-0.474-5.116-3.505-5.116-3.505l0.474-4.642c0,0,1.8-0.568,2.179-0.947   c0.379-0.379,1.231-6.347,1.042-7.01c-0.189-0.663-1.232-0.663-1.232-0.663s-0.284-4.831-0.663-7.01   c-0.379-2.179-3.697-8.405-10.516-8.147c-5.021,0.189-5.684,2.274-7.958,3.505c-2.274,1.232-3.316,6.726-3.789,9.852   c-0.474,3.126,1.8,7.484,1.8,7.484l0.474,3.979c0,0-7.484,1.516-8.81,1.895c-1.326,0.379-11.368,1.8-13.831,2.842   c-2.463,1.042-7.674,5.305-7.674,5.305s-2.084,1.232-3.316,2.368c-1.231,1.137-4.452,5.589-5.779,8.147   c-1.326,2.558-2.842,9.379-3.221,10.895c-0.379,1.516-3.41,5.21-3.979,6.347c-0.569,1.137,1.61,0.947,1.8,2.463   c0.189,1.516,1.705,1.232,1.895,1.8c0.189,0.568,2.084,0.568,2.084,0.568l1.421,1.193c0,0,1.326,0.228,1.895,0   c0.568-0.228,0.474-3.088,0.474-3.088l1.611-0.095c0,0,0.474-2.463,0.568-3.6c0.095-1.137-1.421-3.41-1.421-3.41   s1.705-5.116,3.979-6.916c2.274-1.8,3.6-6.063,3.6-6.063l7.01,0.379c0,0-0.189,2.084-0.379,2.368s-3.505,7.863-4.453,8.81   c-0.947,0.947-5.495,6.916-7.01,9.095c-1.516,2.179-2.937,9.094-3.316,10.421c-0.379,1.326-0.379,2.558-1.137,5.779   c-0.758,3.221,0.853,4.358,0.568,6.631c-0.284,2.274,0,12.41,0,12.41l1.61,1.042c0,0,0.568,1.989,0.947,6.632   c0.379,4.642,4.074,16.768,4.074,16.768s1.042,4.453,2.463,6.916c1.421,2.463,6.726,8.526,9.568,9.947   c2.842,1.421,6.063,4.831,6.063,4.831l0.306,2.37c-2.165-1.216-4.66-1.912-7.32-1.912c-8.27,0-14.975,6.704-14.975,14.975   c0,8.27,6.704,14.975,14.975,14.975c5.68,0,10.622-3.163,13.16-7.823l0.676,1.858l2.937,0.853c0,0,3.695-0.568,4.926-1.99   c1.231-1.421,0.947-4.547,1.231-7.484c0,0-2.653-7.674-3.6-9.853c-0.947-2.179,0.284-6.158-1.61-8.052   c-1.895-1.895-5.495-5.968-6.253-7.673c-0.758-1.705-2.842-4.263-3.316-7.863c-0.474-3.6-4.642-7.863-4.642-7.863   s0.568-5.968,1.326-9.473c0.758-3.505,3.316-15.726,3.316-15.726l0.947-1.99l2.653,3.695c0,0,1.895,3.126,2.274,3.505   c0.379,0.379,3.221,3.789,3.221,3.789s2.368,0.095,2.747,0.189c0.379,0.095,4.926,3.41,6.726,4.926   c1.8,1.516,7.958,7.579,8.242,8.052c0.284,0.474,4.453,6.916,4.831,7.39c0.379,0.474,1.232,4.452,2.084,7.673   s3.41,7.579,5.589,10.989c2.179,3.41,7.2,14.494,7.863,16.863c0.663,2.368,2.084,9.663,1.99,10.705   c-0.095,1.042,1.705,2.274,2.274,2.084c0.568-0.189,0.853,1.421,0.853,1.421s2.653,2.937,4.074,3.032   c1.421,0.095,8.526-0.284,8.716-0.947c0.189-0.663,0.568-3.505-0.284-5.021c-0.853-1.516-3.884-4.642-5.021-6.347   c-1.137-1.705-3.979-8.147-3.979-8.147s-2.558-7.579-3.41-12.505c-0.853-4.926-2.368-10.516-3.979-15.915   c-1.61-5.4-7.863-15.442-7.863-15.442s-3.032-5.589-3.695-6.916c-0.663-1.326-1.326-4.831-2.937-9.189   c-1.611-4.358-5.684-13.168-7.2-15.726c-1.516-2.558-2.653-9.189-2.653-9.189s4.926-9.568,6.632-11.652   c1.705-2.084,6.063-5.21,6.063-5.21l3.031,2.558l2.368,0.095c0,0,1.611,2.558,1.611,2.937c0,0.379,1.232,0.095,1.232,0.095   s7.579,9.095,9.189,10.895c1.61,1.8,4.452,6.821,6.063,9.284c1.61,2.463,7.674,11.463,7.768,13.358   c0.095,1.895,1.042,4.547,1.042,4.547l-1.042,2.842c0,0,0.474,0.853,0.853,1.516c0.379,0.663,0.284,2.463,0.284,2.463   s0.663,0.853,1.611,0.947c0.947,0.095,1.326-3.695,1.326-3.695l1.8-0.663l1.421,0.758v1.989l-1.421,0.568   c0,0-1.042-0.474-1.326-0.474c-0.284,0-0.758,1.232-0.758,1.232l0.853,1.232l2.747,0.474l0.189,1.516c0,0,0.947,0.189,1.516,0   c0.568-0.19,1.895-2.274,1.895-2.274s3.505-4.168,3.6-5.021C178.59,390.378,177.359,389.999,177.169,389.431z"/>
</g>
</svg>