<?xml version="1.0" encoding="utf-8"?>
<!-- Generator: Adobe Illustrator 27.5.0, SVG Export Plug-In . SVG Version: 6.00 Build 0)  -->
<svg version="1.1" xmlns="http://www.w3.org/2000/svg" xmlns:xlink="http://www.w3.org/1999/xlink" x="0px" y="0px"
	 viewBox="0 0 750 500" style="enable-background:new 0 0 750 500;" xml:space="preserve">
<g id="BACKGROUND">
	<rect style="fill:#FFFFFF;" width="750" height="500"/>
</g>
<g id="OBJECTS">
	<path style="fill:#09203F;" d="M177.169,389.431c-0.189-0.568-1.895-1.042-2.653-1.8c-0.758-0.758-3.316-2.747-3.316-2.747
		s-1.8-7.295-1.895-7.673c-0.095-0.379-2.653-10.042-5.779-15.536c-3.126-5.495-4.074-3.789-5.684-7.105
		c-1.611-3.316-6.821-10.326-6.821-10.326V343.2c0,0-3.411-7.105-4.642-9c-1.232-1.895-4.831-6.537-6.253-8.621
		c-1.421-2.084-7.768-6.063-9.379-6.537c-1.611-0.474-5.116-3.505-5.116-3.505l0.474-4.642c0,0,1.8-0.568,2.179-0.947
		c0.379-0.379,1.231-6.347,1.042-7.01c-0.189-0.663-1.232-0.663-1.232-0.663s-0.284-4.831-0.663-7.01
		c-0.379-2.179-3.697-8.405-10.516-8.147c-5.021,0.189-5.684,2.274-7.958,3.505c-2.274,1.232-3.316,6.726-3.789,9.852
		c-0.474,3.126,1.8,7.484,1.8,7.484l0.474,3.979c0,0-7.484,1.516-8.81,1.895c-1.326,0.379-11.368,1.8-13.831,2.842
		c-2.463,1.042-7.674,5.305-7.674,5.305s-2.084,1.232-3.316,2.368c-1.231,1.137-4.452,5.589-5.779,8.147
		c-1.326,2.558-2.842,9.379-3.221,10.895c-0.379,1.516-3.41,5.21-3.979,6.347c-0.569,1.137,1.61,0.947,1.8,2.463
		c0.189,1.516,1.705,1.232,1.895,1.8c0.189,0.568,2.084,0.568,2.084,0.568l1.421,1.193c0,0,1.326,0.228,1.895,0
		c0.568-0.228,0.474-3.088,0.474-3.088l1.611-0.095c0,0,0.474-2.463,0.568-3.6c0.095-1.137-1.421-3.41-1.421-3.41
		s1.705-5.116,3.979-6.916c2.274-1.8,3.6-6.063,3.6-6.063l7.01,0.379c0,0-0.189,2.084-0.379,2.368s-3.505,7.863-4.453,8.81
		c-0.947,0.947-5.495,6.916-7.01,9.095c-1.516,2.179-2.937,9.094-3.316,10.421c-0.379,1.326-0.379,2.558-1.137,5.779
		c-0.758,3.221,0.853,4.358,0.568,6.631c-0.284,2.274,0,12.41,0,12.41l1.61,1.042c0,0,0.568,1.989,0.947,6.632
		c0.379,4.642,4.074,16.768,4.074,16.768s1.042,4.453,2.463,6.916c1.421,2.463,6.726,8.526,9.568,9.947
		c2.842,1.421,6.063,4.831,6.063,4.831l0.306,2.37c-2.165-1.216-4.66-1.912-7.32-1.912c-8.27,0-14.975,6.704-14.975,14.975
		c0,8.27,6.704,14.975,14.975,14.975c5.68,0,10.622-3.163,13.16-7.823l0.676,1.858l2.937,0.853c0,0,3.695-0.568,4.926-1.99
		c1.231-1.421,0.947-4.547,1.231-7.484c0,0-2.653-7.674-3.6-9.853c-0.947-2.179,0.284-6.158-1.61-8.052
		c-1.895-1.895-5.495-5.968-6.253-7.673c-0.758-1.705-2.842-4.263-3.316-7.863c-0.474-3.6-4.642-7.863-4.642-7.863
		s0.568-5.968,1.326-9.473c0.758-3.505,3.316-15.726,3.316-15.726l0.947-1.99l2.653,3.695c0,0,1.895,3.126,2.274,3.505
		c0.379,0.379,3.221,3.789,3.221,3.789s2.368,0.095,2.747,0.189c0.379,0.095,4.926,3.41,6.726,4.926
		c1.8,1.516,7.958,7.579,8.242,8.052c0.284,0.474,4.453,6.916,4.831,7.39c0.379,0.474,1.232,4.452,2.084,7.673
		s3.41,7.579,5.589,10.989c2.179,3.41,7.2,14.494,7.863,16.863c0.663,2.368,2.084,9.663,1.99,10.705
		c-0.095,1.042,1.705,2.274,2.274,2.084c0.568-0.189,0.853,1.421,0.853,1.421s2.653,2.937,4.074,3.032
		c1.421,0.095,8.526-0.284,8.716-0.947c0.189-0.663,0.568-3.505-0.284-5.021c-0.853-1.516-3.884-4.642-5.021-6.347
		c-1.137-1.705-3.979-8.147-3.979-8.147s-2.558-7.579-3.41-12.505c-0.853-4.926-2.368-10.516-3.979-15.915
		c-1.61-5.4-7.863-15.442-7.863-15.442s-3.032-5.589-3.695-6.916c-0.663-1.326-1.326-4.831-2.937-9.189
		c-1.611-4.358-5.684-13.168-7.2-15.726c-1.516-2.558-2.653-9.189-2.653-9.189s4.926-9.568,6.632-11.652
		c1.705-2.084,6.063-5.21,6.063-5.21l3.031,2.558l2.368,0.095c0,0,1.611,2.558,1.611,2.937c0,0.379,1.232,0.095,1.232,0.095
		s7.579,9.095,9.189,10.895c1.61,1.8,4.452,6.821,6.063,9.284c1.61,2.463,7.674,11.463,7.768,13.358
		c0.095,1.895,1.042,4.547,1.042,4.547l-1.042,2.842c0,0,0.474,0.853,0.853,1.516c0.379,0.663,0.284,2.463,0.284,2.463
		s0.663,0.853,1.611,0.947c0.947,0.095,1.326-3.695,1.326-3.695l1.8-0.663l1.421,0.758v1.989l-1.421,0.568
		c0,0-1.042-0.474-1.326-0.474c-0.284,0-0.758,1.232-0.758,1.232l0.853,1.232l2.747,0.474l0.189,1.516c0,0,0.947,0.189,1.516,0
		c0.568-0.19,1.895-2.274,1.895-2.274s3.505-4.168,3.6-5.021C178.59,390.378,177.359,389.999,177.169,389.431z"/>
	<g>
		<path style="fill:#09203F;" d="M48.152,210.32c0.678-2.71,3.388-6.945,3.727-9.486c0.339-2.541,0.847-6.437,3.218-7.284
			c2.371-0.847,4.573,1.016,4.573,1.016s8.639-11.18,13.72-14.059c5.082-2.88,9.316-3.049,9.316-3.049l3.218-19.141
			c0,0,1.694-16.43,2.202-20.665c0.508-4.235,3.896-7.284,3.896-7.284s-0.339-3.049,1.016-4.743
			c1.355-1.694,6.945-14.906,6.945-14.906s2.71-13.72,3.049-16.43c0.339-2.71,1.355-5.082,1.016-8.131
			c-0.339-3.049,2.71-10.671,4.235-12.535c1.524-1.863,3.388-4.065,6.098-6.267c2.71-2.202,7.453-2.71,7.453-2.71l0.678-4.065
			c0,0-1.694-2.71-2.371-6.945c-0.678-4.235,1.863-13.89,13.212-12.704c0,0,5.831,0.575,8.398,3.504
			c2.568,2.929,3.972,7.462,4.373,9.187c0.401,1.725-0.923,3.169-1.123,4.012c-0.201,0.843-1.284,2.367-1.284,2.367
			s0.201,2.046,0.241,3.691c0.04,1.645-1.123,0.682-1.203,1.364c-0.08,0.682-1.966,3.33-2.046,3.45
			c-0.08,0.12-0.802,1.043-0.682,1.324c0.12,0.281-1.123,2.648-1.123,2.648s2.688,1.966,3.25,2.407
			c0.562,0.441,2.006,1.926,1.845,5.215c-0.16,3.29-2.487,5.296-3.169,6.82c-0.682,1.524-0.12,3.972-0.08,6.138
			c0.04,2.166-3.611,9.027-4.132,9.949c-0.521,0.923-0.682,2.126-0.722,5.015c-0.04,2.888-1.966,5.055-1.163,5.777
			c0.802,0.722,6.78,3.37,7.622,3.21c0.842-0.16,7.061,0.481,8.023,0.642c0.963,0.16,4.614-0.16,4.614-0.16s0.521,0.883,0.201,1.444
			c-0.321,0.562-4.894,1.244-5.015,1.244c-0.12,0,2.287,1.565,2.407,1.645c0.12,0.08,2.527,0.722,2.848,1.003
			c0.321,0.281,3.089,2.888,3.169,3.49c0.08,0.602-0.882,1.123-0.882,1.123s-0.481,0.923-0.642,1.043
			c-0.16,0.12-1.685-0.04-2.086,0.16c-0.401,0.201-7.181-2.487-7.181-2.487s3.129,2.166,3.37,2.367
			c0.241,0.201-0.722,1.003-1.003,1.083c-0.281,0.08-2.688-1.284-3.129-1.605c-0.441-0.321-1.645-0.441-4.533-1.043
			c-2.888-0.602-3.74-2.01-4.926-3.874c-1.186-1.863-4.065-1.863-4.065-1.863l0.169,3.049c0,0,0,3.049,0,3.727
			c0,0.678,1.694,2.202,3.896,3.727c2.202,1.524,1.186,5.547,1.186,5.547s3.388,3.939,5.251,5.971
			c1.863,2.033,0.678,2.541,2.88,6.775c2.202,4.235,5.759,17.955,5.251,19.479c-0.508,1.524-3.557,9.655-3.727,11.349
			c-0.169,1.694-3.218,9.655-4.912,14.229c-1.694,4.573-9.824,16.43-10.502,19.141c-0.677,2.71,0.508,8.977,1.694,10.502
			c1.186,1.524,6.606,6.775,5.759,7.961c-0.847,1.186-5.081,1.023-5.081,1.023s-1.863-0.177-2.372-0.007
			c-0.508,0.169-4.065-2.71-5.42-3.557c-1.355-0.847-6.775-2.202-6.775-2.202s-3.218-1.525-3.049-4.574
			c0.169-3.049,4.743-6.606,4.743-7.114c0-0.508,2.371-4.912,3.049-7.114c0.677-2.202,3.726-14.229,5.081-21.173
			c1.355-6.945,5.928-13.212,5.928-13.212s0.339-2.371,0-3.049c-0.339-0.678-10.163-10.671-10.163-10.671s-5.42-1.016-5.59-1.694
			c-0.169-0.677-4.912-7.961-5.42-6.606c-0.508,1.355-6.437,7.284-6.437,7.284l-3.218,2.371l-0.678,1.694
			c0,0-2.033,6.945-3.388,9.994s-5.59,11.349-5.928,12.026c-0.339,0.678-2.033,1.525-2.033,1.525s-1.186,1.863-2.033,2.541
			c-0.847,0.677-3.727,1.016-5.759,1.863c-2.033,0.847-20.835,9.655-20.835,9.655l-2.541,4.065c0,0-2.541,5.928-2.71,6.775
			c-0.169,0.847,1.016,3.049,0.508,4.743c-0.508,1.694-5.082,7.622-6.098,7.792s-3.049-1.016-4.404-3.049
			C48.491,219.975,47.475,213.03,48.152,210.32z"/>
		
			<ellipse transform="matrix(0.7071 -0.7071 0.7071 0.7071 -114.3268 176.9286)" style="fill:#09203F;" cx="156.408" cy="226.469" rx="14.757" ry="14.757"/>
	</g>
	<g>
		<path style="fill:#09203F;" d="M350.298,223.461c-1.298-0.278-10.754,0-11.496-0.278c-0.742-0.278-3.245-0.464-3.245-0.464
			s-2.503-8.344-3.245-11.681c-0.742-3.338-2.132-14.37-3.337-17.058c-1.205-2.688-2.874-6.768-2.874-6.768s0.093-4.172-0.371-5.841
			c-0.464-1.669-3.523-4.821-3.986-5.933c-0.464-1.113-3.894-11.403-4.914-13.535c-1.02-2.132-6.304-12.423-6.675-13.999
			c-0.371-1.576-1.854-4.357-1.854-4.357l-1.298-1.854l1.298-3.801c0,0,1.298-1.02,1.298-2.132s0.464-5.099,0.464-5.099
			s2.225-4.635,2.04-7.417c-0.185-2.781-0.742-14.277-0.742-15.575c0-1.298-0.278-7.139-1.854-11.589
			c-1.576-4.45-4.45-11.681-4.45-11.681s1.483-3.43,1.576-4.079c0.093-0.649-0.093-3.43-0.093-4.079
			c0-0.649,0.371-5.562-0.093-7.046c-0.464-1.483-1.391-3.245-1.391-3.245s0.927-7.695,1.205-10.847
			c0.278-3.152,1.854-11.867,1.947-12.145c0.093-0.278,2.04-1.205,2.596-2.225c0.556-1.02,1.205-2.318,2.132-3.059
			c0.927-0.742,3.43-2.503,3.523-2.967c0.093-0.464,0-1.483,0-1.483s-4.543,2.596-5.284,2.41c-0.742-0.185-1.205-0.649-1.205-0.649
			s3.059-1.298,3.152-1.762c0.093-0.464,0-1.02,0-1.02l-2.132,0.371c0,0,2.503-1.762,2.225-2.225
			c-0.278-0.464-1.298-0.649-1.298-0.649L309.692,31c0,0,1.483-2.41,1.854-2.874c0.371-0.463-0.43-1.278-0.43-1.278
			s-2.782,2.288-2.872,2.513c-0.09,0.224-0.897,2.916-1.077,3.186c-0.179,0.269-2.064,4.308-2.423,6.327
			c-0.359,2.019-1.167,3.455-1.211,4.532c-0.045,1.077-0.09,2.692-1.526,6.416c-1.436,3.724-3.949,9.512-4.038,11.532
			c-0.987,0.045-1.884,0-1.884,0s-5.151,0.427-7.252,3.579c-2.101,3.152-2.658,5.933-2.658,5.933l1.051,4.141
			c0,0-0.989,0.618-0.68,2.04c0.309,1.422,1.545,3.708,1.978,4.017c0.433,0.309,0.989,0.494,0.989,0.494s-0.989,2.658-1.731,2.967
			c-0.742,0.309-2.287,0-2.287,0s-1.854-0.124-3.461,1.174s-2.41,3.214-2.41,3.214l-10.692,7.478l-6.798,4.141l0.927,0.865
			c0,0-9.024,4.512-10.383,5.253c-1.36,0.742-5.439,1.236-11.001,4.759c-5.563,3.523-7.726,4.821-7.726,4.821
			s-4.697-0.309-5.377-0.309c-0.68,0-3.028,0.803-3.276,0.989c-0.247,0.186-1.112,0.865-1.112,0.865s-1.854-0.062-2.163,0.247
			c-0.309,0.309-0.742,1.051-0.742,1.051s-1.36,0.371-1.607,0.803c-0.247,0.433-1.483,2.843-1.298,3.214
			c0.185,0.371,0.865,0.556,0.865,0.556l0.927-0.556c0,0,0.989,0.186,1.298-0.247c0.309-0.433,0.618-1.236,0.618-1.236h1.236
			c0,0,2.04,0.927,3.956,0.618c1.916-0.309,3.461,0.556,5.13,0.124c1.669-0.433,2.348-1.978,2.348-1.978s9.827-2.472,12.114-2.719
			c2.287-0.247,6.304-1.051,7.54-1.978c1.236-0.927,6.49-4.388,8.096-5.13c1.607-0.742,4.635-1.916,4.635-1.916
			s2.04,2.163,2.843,1.73c0.803-0.433,2.967-2.967,4.203-3.523c1.236-0.556,3.77-1.051,3.77-1.051s0.68,3.09,2.04,4.326
			c1.36,1.236,0.185,2.843,1.545,3.894c1.36,1.051,0.433,4.141,1.607,4.079c1.174-0.062-1.545,1.545-0.803,2.287
			c0.742,0.742,0.185,3.214-1.854,4.45c-2.04,1.236-5.377,3.77-5.871,6.428c-0.494,2.658-2.101,6.49-3.399,7.54
			c-1.298,1.051-3.708,3.029-3.585,3.832c0.124,0.804-2.658,1.792-4.203,3.708c-1.545,1.916-6.119,5.995-7.293,7.355
			c-1.174,1.36-8.529,8.035-8.529,8.035h-2.101c0,0-1.545-3.09-4.264-5.254c-2.719-2.163-10.322-4.141-11.805-4.45
			c-1.483-0.309-6.984-3.113-6.984-3.113s0.433-3.005,0.618-3.562c0.185-0.556-0.433-2.658-0.989-3.028
			c-0.556-0.371-2.967-0.742-2.967-0.742s-0.223-1.236-0.761-1.174c-0.537,0.062-1.279,1.113-1.279,1.113l-2.04,0.618
			c0,0-5.562,0.309-7.973,0.124c-2.41-0.185-2.101-1.174-2.101-1.174s-0.865-0.247-1.236,0.309
			c-0.371,0.556-0.556,0.927-0.556,0.927l-2.967,0.309c0,0-0.618-0.68-1.051-0.494c-0.433,0.185-0.68,1.422-0.68,1.422
			s-2.225,1.36-2.781,2.41c-0.556,1.051-0.556,2.735,0.927,3.561c1.483,0.827,6.242,0.641,8.838,1.445
			c2.596,0.803,1.36,2.163,2.534,2.596c1.174,0.433,3.214-0.185,3.214-0.185s3.399,1.916,4.141,1.792
			c0.742-0.124,0.803,1.174,1.483,1.298c0.68,0.124,5.068,2.225,6.057,3.461c0.989,1.236,6.119,5.439,9.209,8.035
			c3.09,2.596,6.613,3.09,6.613,3.09s4.821,4.017,6.737,4.079s6.613-0.556,6.613-0.556s11.557-5.871,14.586-7.293
			c3.029-1.421,6.304-2.534,6.304-2.534s2.163,2.719,3.461,1.731c1.298-0.989,9.024-5.563,9.024-5.563s3.461,5.439,5.006,6.366
			c1.545,0.927,0.433,2.719,2.349,3.585c1.916,0.865,4.573,1.978,4.573,1.978l1.978-0.803c0,0,3.276,3.585,6.737,6.304
			c3.461,2.719,5.995,7.417,6.922,8.035c0.927,0.618,2.04,1.916,2.04,3.77c0,1.854,0.803,7.911,1.483,11.557
			c0.68,3.646,7.169,17.491,8.375,19.53c1.205,2.04,1.205,7.324,2.225,8.436c1.02,1.112,1.576,6.582,1.947,7.88
			c0.371,1.298,3.337,2.781,4.357,2.874s2.318,0,2.318,0l1.205-0.371l-0.371-1.576c0,0,1.947,0.556,2.318,0.185
			c0.371-0.371,0-1.854,0-1.854s7.139-5.006,8.9-5.748c1.762-0.742,5.099-3.245,5.47-4.543
			C353.635,225.223,351.596,223.739,350.298,223.461z"/>
		
			<ellipse transform="matrix(0.9732 -0.2298 0.2298 0.9732 -44.8193 77.3792)" style="fill:#09203F;" cx="309.878" cy="231.156" rx="14.184" ry="14.184"/>
	</g>
	<g>
		<path style="fill:#09203F;" d="M699.528,90.623c0,0-2.153-10.166-3.468-13.993c-1.315-3.827-7.176-11.003-9.209-13.156
			c-2.033-2.153-9.328-2.631-11.84-4.784c-2.511-2.153-3.468-4.903-3.229-5.262c0.239-0.359,1.316-5.86,1.316-6.697
			s-0.12-8.133-1.794-10.525c-1.674-2.392-6.578-3.229-6.578-3.229s-0.837-1.794-3.588-0.837
			c-2.751,0.957-12.558,6.937-12.558,6.937l0.837,2.99l1.674,0.239c0,0-0.478,6.099-0.359,6.458c0.12,0.359,1.794,1.435,1.794,1.435
			s-0.718,4.425-0.239,4.784c0.478,0.359,1.196,0.478,1.196,0.478s1.076,3.468,1.435,3.827c0.359,0.359,1.196,1.914,1.914,2.153
			s4.305,0.119,4.305,0.119l0.598,2.033c0,0-1.555,1.794-3.827,2.392c-2.272,0.598-6.458,2.033-8.013,5.262
			c-1.555,3.229-4.306,12.916-5.023,15.069c-0.717,2.153-2.153,9.687-2.153,9.687s-2.871,3.947-5.382,6.219
			c-2.511,2.272-13.633,12.797-13.633,12.797s-4.305,0.718-5.023,1.316c-0.718,0.598-4.545,2.033-4.784,2.392
			c-0.239,0.359-2.033,2.631-2.153,3.109c-0.12,0.478,0,3.229,0,3.229h1.794c0,0,0.717,0.957,1.196,1.435s0.718,2.392,1.555,2.153
			c0.837-0.239,2.033-0.718,2.033-0.718s-0.478-2.512,0.478-2.99c0.957-0.478,5.262-0.957,6.099-2.272
			c0.837-1.316,1.674-3.708,1.674-3.708s10.166-4.903,12.318-6.339c2.153-1.435,9.687-8.252,10.046-8.85
			c0.359-0.598,1.316-4.186,1.316-4.186l1.555-0.359l2.033-5.621c0,0,0.239,4.306-0.239,5.98c-0.478,1.674-2.511,8.372-2.751,11.123
			s-2.512,3.349-2.392,4.903c0.12,1.555-0.478,2.272-0.478,2.272s-8.013,3.122-9.089,3.295c-1.076,0.173-8.133,3.881-8.133,3.881
			s-8.731,5.382-10.046,5.621c-1.316,0.239-5.502,3.229-5.143,5.86c0.359,2.631,1.555,8.133,2.751,9.927
			c1.196,1.794,3.109,6.339,3.109,6.339s5.382,10.285,6.578,13.395c1.196,3.109,4.066,16.385,4.066,16.385s-2.033,0-1.794,1.196
			c0.239,1.196-0.837,5.023-0.837,5.023s0.359,4.664-1.914,6.937c-2.272,2.272-5.98,5.86-5.741,6.817s1.555,2.153,2.033,2.153
			c0.478,0,7.534-1.794,9.089-3.109c1.555-1.315,8.133-7.295,10.285-8.85c2.153-1.555,4.784-3.468,5.023-4.545
			c0.239-1.076,0-4.186-0.359-4.545c-0.359-0.359-6.697-5.621-6.697-5.621l-0.478,0.718c0,0-1.316-12.438-2.153-17.222
			c-0.837-4.784-5.501-16.504-5.501-16.863c0-0.359-1.674-2.033-1.316-2.153c0.359-0.12,8.611-0.718,8.611-0.718
			s-1.076,9.448-0.359,10.525c0.718,1.076,3.109,2.87,3.109,2.87l4.066,1.794c0,0,0.718,13.634,1.315,15.667
			c0.598,2.033,0.837,5.501,1.196,7.535c0.359,2.033,7.415,31.215,7.415,31.215s-1.674,2.751-1.435,3.827
			c0.239,1.076-2.751,4.305-4.186,5.382c-1.435,1.076-5.741,2.512-5.621,3.827c0.12,1.316,1.196,2.87,2.153,2.751
			c0.957-0.12,15.906-3.109,17.7-3.708c1.794-0.598,3.588-2.272,3.588-3.109c0-0.837-1.555-6.817-1.555-6.817l-1.555-0.8
			c0,0-2.272-14.508-2.272-18.215s0.478-9.328-0.359-11.84s-2.751-6.578-2.751-6.578l0.837-16.624l1.316-1.316
			c0,0,0.718-3.349,0.718-3.947c0-0.598,2.631-14.591,2.87-14.83s8.013-3.349,9.568-6.578c1.555-3.229,2.631-13.873,3.827-15.906
			c1.196-2.033,3.588-9.568,4.066-12.558s1.555-8.85,1.555-8.85l2.512-5.621c0,0,1.555,6.099,2.033,6.339
			c0.478,0.239,1.555,0,1.555,0s0.12,11.242,0,15.906c-0.12,4.664-1.196,12.916-2.153,14.232c-0.957,1.316-2.392,3.109-2.033,4.904
			c0.359,1.794,0.718,5.86,0.478,6.697c-0.239,0.837-0.239,2.153,0.478,2.153c0.718,0,1.196-0.717,1.315-1.076
			c0.12-0.359-0.12,3.11,0.239,3.349c0.359,0.239,1.728-0.478,1.728-0.478s1.023,0.957,1.741,0.478
			c0.718-0.478,1.914-2.631,2.392-2.99c0.478-0.359,1.555-1.674,1.674-2.631c0.12-0.957-1.196-6.937-1.076-9.209
			c0.12-2.272,1.674-14.112,2.392-16.743c0.718-2.631,0.598-12.438,0.718-15.189C699.647,92.895,699.528,90.623,699.528,90.623z"/>
		<circle style="fill:#09203F;" cx="631.328" cy="65.358" r="10.255"/>
	</g>
	<g>
		<path style="fill:#09203F;" d="M551.824,194.41c-0.52-1.443-5.795-5.597-5.853-6.835s-2.347-4.292-2.347-4.292
			s1.449-2.777,2.721-4.531c1.272-1.753,0.178-3.395,1.584-4.703c1.406-1.308,2.03-4.837,1.392-6.387
			c-0.638-1.55-15.528-8.524-19.791-10.355c-4.263-1.831-15.07-1.208-18.438-0.824s-9.245-2.16-12.276-1.792
			c-3.03,0.369-6.113-2.76-8.526-3.662c-2.413-0.902-3.271-2.329-5.479-3.692c-2.209-1.363-3.933-6.813-4.667-8.012
			c-0.734-1.199-1.84-0.711-2.483-2.374s-2.095-3.739-2.095-3.739l3.957,2.523c0,0,2.049,0.355,3.293,0.409
			c1.244,0.054,4.14,1.611,4.595,1.702c0.456,0.091,2.649,1.117,2.982,0.988c0.333-0.128,0.547-0.364,1.55-0.637
			c1.003-0.273,8.79-0.302,10.925-0.515c2.135-0.214,15.422-5.694,16.886-5.763c1.464-0.069,6.647-5.054,6.647-5.054
			s1.469,0.044,1.915-0.09c0.385-0.116,1.188-2.11,1.182-2.561c0.605,0.36,4.531,1.614,4.531,1.614s0.843-1.281,0.693-2.064
			c-0.15-0.783-1.098-4.125-1.821-5.107c-0.724-0.982-3.137-1.884-4.611-2.04c-1.475-0.156-4.881,1.811-5.761,2.303
			c-0.88,0.493-9.657,5.874-11.089,6.618c-1.432,0.745-11.339,1.325-11.339,1.325s-7.578-0.32-9.396-0.573
			c-1.818-0.253-6.279-3.881-8.348-4.686c-2.07-0.806-8.213-6.611-13.919-7.923c-5.706-1.311-14.609-1.004-15.279-0.86
			s-3.967-2.748-3.967-2.748l0.661-2.74c0,0,0.743-5.792,0.577-6.913c-0.166-1.121-2.379-4.967-5.714-6.278
			c-3.335-1.31-7.314-1.913-7.314-1.913s-5.508,0.485-7.027,1.799s-1.943,4.268-1.799,4.939c0.145,0.67-1.39,1.646-1.948,1.785
			c-0.558,0.139-0.36,1.936,0.91,2.553c-0.35,2.161,0.7,5.272,0.7,5.272s0.594,3.02-0.313,2.95c-0.906-0.07-3.105-1.208-4.805-1.354
			s-5.071-4.615-8.573-7.046c-3.501-2.431-9.335-4.075-9.335-4.075l-4.062-7.146l-11.361-18.315c0,0,2.288-6.542,2.492-7.003
			c0.204-0.461,2.71-2.385,3.128-3.093c0.418-0.708-0.057-3.598-2.205-3.674c-2.148-0.075-6.199,4.984-6.199,4.984l-2.601-0.103
			l-3.89-8.283c0,0-2.214-1.476-3.105-1.208c-0.89,0.268-0.388,3.743-0.388,3.743l-2.375-2.484c0,0-1.978-0.584-2.816,0.133
			c-0.838,0.717,2.384,5.08,2.384,5.08l-2.118-1.819c0,0-2.258-0.007-2.885,1.088c-0.627,1.095,3.902,4.395,3.902,4.395l-2.73-1.113
			c0,0-0.859,0.944-0.913,2.188c-0.054,1.244,9.361,7.009,9.361,7.009l3.312,5.601c0,0,4.33,8.036,7.545,13.98
			c3.215,5.944,6.421,9.292,8.211,11.352c1.79,2.06,6.744,6.568,9.022,9.395c2.278,2.827,11.665,10.399,13.359,12.803
			c1.694,2.404,3.859,5.236,5.632,9.329c1.773,4.093,6.683,10.07,11.785,17.731s13.407,13.816,15.514,15.41
			c2.107,1.594,5.333,7.763,5.333,7.763l2.666-0.916l2.519,3.155l3.928,6.7c0,0,8.685,7.041,16.969,12.746
			c8.284,5.705,22.338,11.702,24.289,12.4c1.952,0.698,11.105,5.685,12.59,6.066s3.106-1.162,4.441-1.564
			c1.336-0.402,3.735-4.578,3.735-4.578s3.567-0.958,5.579-1.375c2.012-0.416,13.166-0.864,13.74-0.665
			c0.574,0.199,2.618-1.93,2.319-3.496c-0.3-1.566-4.396-4.647-8.072-6c-3.676-1.353-9.039-0.192-10.707,0.352
			c-1.668,0.544-6.687-2.972-8.591-2.656c-1.904,0.316-4.608,2.813-4.608,2.813l-6.985-6.895l-1.181-8.298
			c0,0-2.033-0.017-2.371-0.001c-0.317,0.015-1.268-2.915-1.753-3.173c1.405,0.04,17.828-0.633,17.828-0.633l0.907-2.3l5.144-1.033
			l1.726,3.079c0,0-5.439,1.95-5.569,3.988c-0.13,2.038,3.189,5.381,4.111,5.789c0.922,0.408,5.609,1.654,6.993,2.267
			c1.383,0.612,5.221,5.398,6.825,5.887c0,0,6.35,0.604,7.004,0.121C552.675,198.095,552.343,195.853,551.824,194.41z"/>
		<path style="fill:#09203F;" d="M414.011,68.55c7.649-0.361,13.558-6.854,13.197-14.503c-0.361-7.649-6.854-13.558-14.503-13.197
			c-7.649,0.361-13.558,6.854-13.197,14.503C399.868,63.002,406.361,68.91,414.011,68.55z"/>
	</g>
	<g>
		<path style="fill:#09203F;" d="M698.983,339.336c0,0-0.717-1.674-1.076-2.391c-0.359-0.717-1.076-1.554-1.913-2.152
			c-0.837-0.598-6.934-1.315-6.934-1.315l-16.497-6.336c0,0-5.379-7.173-10.759-11.835c-5.38-4.662-16.258-13.509-17.693-14.226
			c-1.435-0.717-9.205-4.543-9.205-4.543l-0.717-1.913c0,0,1.315-3.706,1.315-4.304c0-0.598-0.956-0.956-0.956-0.956
			s-0.12-6.934-1.195-8.966c-1.076-2.032-7.77-5.858-13.867-2.869c-6.097,2.989-4.304,13.628-4.304,13.628l-2.032,3.228
			c0,0-6.455,0.239-8.727,0.359s-3.586-1.315-5.499,0.359c-1.913,1.674-5.38,5.977-5.38,5.977s-3.467,1.673-4.662,4.184
			c-1.195,2.51-3.467,11.237-4.184,12.911c-0.717,1.674-0.717,11.596-0.837,13.867c-0.12,2.271-1.913,5.499-1.554,6.694
			c0.359,1.195,0.956,6.097,1.195,7.89c0.239,1.793,1.195,3.706,1.195,3.706s1.195,0.956,1.554,0.837
			c0.359-0.12,1.435,1.195,2.152,0.837c0.717-0.359-3.108,3.706-3.347,5.618c-0.239,1.913-0.478,2.75-0.478,2.75
			s-3.945,5.021-3.825,6.934c0.12,1.913-2.032,7.531-1.913,9.085c0.12,1.554-0.005,10.042-0.005,10.042s-0.832,2.032-0.234,8.488
			c0.598,6.455,2.032,16.617,2.032,16.617s-1.554,0.478-1.196,2.63c0.359,2.152,0.717,7.412,0.956,10.161
			c0.239,2.75,3.49,12.194,5.57,13.15c2.081,0.956,6.025,0,6.743-1.315c0.717-1.315,1.674-7.651,0.837-9.683
			c-0.837-2.032-3.347-3.467-3.347-7.173c0-3.706-1.913-9.444-1.913-9.444s0.717-12.552,1.435-14.584
			c0.717-2.032,1.674-6.575,1.913-8.249c0.239-1.674,0.359-5.14,0.359-5.14s10.52-1.674,11.596-2.63
			c1.076-0.956,5.738-0.478,7.412,2.63c1.674,3.108,6.336,4.064,7.292,5.977c0.956,1.913,0.956,4.842,2.63,4.274
			c1.674-0.568,2.989,0,2.989,0s8.607,6.604,13.747,9.115c5.14,2.51,7.89,6.575,9.683,6.934c1.793,0.359,6.216,5.858,6.934,8.009
			c0.717,2.152,6.814,11.237,12.433,17.334c5.619,6.097,6.933,9.324,7.412,11.237c0.478,1.913,2.032,5.26,3.108,6.455
			c1.076,1.195,5.738,10.281,5.738,10.281s2.989,1.793,6.336,1.554c3.347-0.239,4.782-1.793,4.782-3.108
			c0-1.315-1.315-5.738-2.989-7.77c-1.674-2.032-7.292-8.846-7.77-9.444c-0.478-0.598-4.543-9.324-5.738-12.433
			c-1.195-3.108-5.14-12.911-6.336-14.823c-1.195-1.913-6.575-8.129-6.575-8.129s-4.423-4.543-5.499-5.977
			c-1.076-1.435-5.738-8.846-6.336-10.52c-0.598-1.674-7.651-11.118-7.651-11.118l-10.042-13.987c0,0-0.956-3.706-1.315-4.543
			c-0.359-0.837-1.674-3.108-2.391-3.706c-0.717-0.598,6.814-3.706,7.412-5.14c0.598-1.435,2.152-9.444,2.63-12.791
			s0.837-11.357,1.195-11.237c0.359,0.12,15.182,0,15.182,0s4.304,4.782,5.738,5.021c1.435,0.239,2.989,0.239,2.989,0.239
			s2.032,5.26,8.727,6.216c6.694,0.956,13.269-0.12,13.269-0.12l2.989,1.434c0,0-0.956,0.956,0,1.435
			c0.956,0.478,2.51,1.554,2.51,1.554s-2.51,1.674-2.032,2.152c0.478,0.478,2.032,0.478,2.032,0.478l2.75-2.391
			c0,0,0.598,2.152,1.076,2.271c0.478,0.119,1.674-0.12,1.674-0.12v-5.14L698.983,339.336z M598.327,325.589
			c-0.478,1.554-1.554,5.499-1.913,7.053c-0.359,1.554-1.793,12.074-1.793,12.074s-1.315-0.956-1.793-1.674
			c-0.478-0.717-2.391-2.51-2.391-2.51s-0.598-3.825-0.956-5.38c-0.359-1.554,1.435-5.499,3.108-9.205
			c1.674-3.706,2.032-8.368,2.032-8.368h4.901C599.523,317.579,598.805,324.035,598.327,325.589z"/>
		
			<ellipse transform="matrix(0.7071 -0.7071 0.7071 0.7071 -143.3313 556.0165)" style="fill:#09203F;" cx="599.506" cy="451.024" rx="12.701" ry="12.701"/>
	</g>
	<g>
		<path style="fill:#09203F;" d="M355.908,384.051c-0.708-5.263-1.012-11.234-1.012-13.056c0-1.822,0.304-5.673,0.202-7.189
			c-0.101-1.515,0.202-5.564-1.316-7.588c-1.518-2.024-2.733-3.34-2.834-5.769c-0.101-2.429,0.506-5.364,1.518-6.477
			c1.012-1.113,3.34-3.745,2.631-7.894s-6.073-7.692-10.323-8.906c-0.202,1.417-0.202,1.417-0.202,1.417s-2.632-2.125-4.251-2.125
			c-0.202,0.911-0.202,2.328-0.202,2.328s-2.024,0.101-3.644,2.125c-1.619,2.024-2.227,4.251-2.125,4.858
			c0.101,0.607-2.631,2.733-2.53,3.644c0.101,0.911,1.113,1.316,1.113,1.316l-0.607,1.316c0,0-2.328,1.012-4.858,0.81
			c-2.53-0.203-7.793,0.708-7.793,0.708l-10.121-2.834c0,0-8.805-3.34-12.955-4.555c-4.15-1.215-15.08-8.906-15.08-8.906
			l-1.619-1.619c0,0-0.994-3.359-1.663-3.868c-0.668-0.509-4.138-2.419-4.87-2.578c-0.732-0.159-3.055,0.764-3.406,1.305
			c-0.35,0.541-2.419-1.209-3.119-0.668c-0.7,0.541-0.7,0.891-0.573,1.273c0.127,0.382,2.896,1.146,2.896,1.146
			s0.286,0.987,0.732,1.146c0.446,0.159,1.719,0.509,1.719,0.509v0.764l-7.034-0.096l-7.543-5.124c0,0,0.064-3.024,0.605-3.883
			s2.196-3.183,1.623-4.933c-0.573-1.751-3.915-3.278-6.047-2.705c-2.132,0.573-3.024,1.719-3.024,1.719s-0.637-0.159-0.955,0.191
			c-0.318,0.35,0.032,1.178,0.032,1.178l-0.648,0.254c0,0-0.08,0.024-0.22,0.067c-0.93,0.285-4.515,1.389-5.043,1.653
			c-0.607,0.304-2.429,0.506-2.631,0.911c-0.202,0.405,0,1.619,0,1.619s-1.215,2.024-0.708,2.834
			c0.506,0.81,1.619,1.923,4.858,1.721c1.721,1.215,6.376,2.024,7.894,4.15c1.518,2.125,3.441,4.352,6.073,7.996
			c2.632,3.643,2.935,6.174,7.085,8.603c4.15,2.429,4.959,4.15,4.959,4.15s1.518,3.239,5.06,7.186
			c3.542,3.947,6.882,9.615,6.983,9.919c0.101,0.304-0.202,3.138,0.607,3.947c0.81,0.81-1.721,1.923,0,2.632
			c1.721,0.708,5.364,2.125,5.364,2.125s0.911,1.619,1.822,1.923c0.911,0.304,1.72,0.81,1.72,0.81s-2.733,1.518-3.643,2.125
			c-0.911,0.607-11.538,1.721-11.538,1.721s-10.627,1.113-13.461,1.316c-2.834,0.202-5.769-0.203-7.591,0.81
			c-1.822,1.012-4.15,2.733-5.061,5.162c-0.911,2.429-0.911,5.364-0.911,6.882c0,1.518-0.607,9.008-0.607,9.008
			s-1.214,0.304-1.417,2.834c-0.202,2.53-0.81,15.182-0.81,15.182s-3.34,7.186-4.555,8.805c-1.214,1.619-8.097,11.032-8.805,12.348
			c-0.708,1.316-2.328,2.834-1.822,4.15c0.506,1.316,1.923,2.227,2.935,1.923c1.012-0.304,5.06-0.304,6.781-2.024
			c1.721-1.721,6.781-7.591,7.793-7.996c1.012-0.405,5.364-1.923,6.376-3.947c1.012-2.024-0.405-6.072-0.405-6.072l-2.024-2.834
			c0,0,4.15-9.817,5.668-13.259c1.518-3.441,2.434-9.615,2.938-12.044c0.504-2.429,0-5.061,0-5.061l14.875,1.012
			c0,0,0.708,2.834,1.619,2.733c0.911-0.101,3.441-1.923,3.846-1.923c0.405,0,9.008,1.721,10.931,1.012
			c1.923-0.708,3.441-0.101,5.364,0.304c1.923,0.405,4.757,1.215,10.627,0.304c5.87-0.911,6.983,0.607,11.639-2.429
			c4.656-3.036,13.157-5.162,16.7-8.805c3.542-3.644,6.174-5.567,6.174-5.567s1.923,4.15,1.923,4.453
			c0,0.304-2.935,1.417-3.239,2.227c-0.304,0.81-4.656,1.113-5.465,2.935c-0.81,1.822-2.125,4.656-1.619,5.263
			c0.506,0.607,1.215-0.506,1.215-0.506s-0.101,2.125,0.607,2.328c0.708,0.202,1.113-0.607,1.113-0.607l0.304-3.137
			c0,0,0.405,3.745,1.012,3.846c0.607,0.101,1.822,0,1.822,0l-0.202-3.036c0,0,1.619,1.72,3.745,0.708
			c2.125-1.012,6.781,0.405,8.198-1.417C354.896,390.427,356.617,389.313,355.908,384.051z M268.316,327.591l-1.113-1.298
			c0.278,0,3.708,0,3.708,0L268.316,327.591z M321.623,361.151l-1.761,0.834c0,0-2.503-2.04-3.337-1.669
			c-0.834,0.371-1.483,1.669-1.483,1.669s-2.503-2.874-3.986-3.616c-1.483-0.742-8.529-6.397-11.774-8.344
			c-3.245-1.947-6.304-3.245-7.88-3.708c-1.576-0.464-6.768-2.503-6.768-2.503s-2.596-3.523-4.265-5.099
			c-1.669-1.576-6.397-6.119-6.397-6.119l-3.059-3.523l2.503,0.371c0,0,1.762,2.596,3.43,3.337c1.669,0.742,2.689,0.834,2.689,0.834
			s7.602,5.748,8.9,6.86c1.298,1.113,8.993,5.841,11.032,6.582c2.04,0.742,9.178,3.801,9.178,3.801s11.959,4.821,12.423,4.913
			c0.464,0.093,3.43,1.205,3.43,1.205L321.623,361.151z"/>
		<circle style="fill:#09203F;" cx="255.105" cy="286.846" r="11.82"/>
	</g>
	<g>
		<path style="fill:#09203F;" d="M520.203,307.092l0.144-5.026l-4.308-1.58l-2.154,0.574c0,0,3.734-2.585,4.165-6.319
			c0.431-3.734-2.154-8.76-2.154-8.76s3.59-3.734,2.298-6.462c-1.293-2.729-7.611-3.016-7.611-2.729
			c0,0.287-2.585,1.436-2.585,1.436l0.718,1.005c0,0-3.734,1.005-6.319,1.436c-2.585,0.431-7.611,3.878-8.617,6.462
			c-1.005,2.585-1,6.408-1,6.408s0.248,1.159-0.952,2.152c-1.2,0.993-1.49,1.738-1.242,2.4s1.283,0.538,1.283,0.538l-0.124,2.069
			c0,0-4.8,0.124-7.076,0.124c-2.276,0-6.042-0.579-6.042-0.579l-4.097-0.91c0,0-1.862-2.442-4.387-2.276
			c-2.524,0.166-3.352,2.731-3.352,2.731s-3.924,3.59-3.924,4.074c0,0.485-0.108,3.824-0.108,3.824l0.862,1.292
			c0,0,0.162,1.454,0.7,1.616c0.538,0.162,1.077,1.508,1.077,1.508s0.592,1.077,1.562,0.808c0.969-0.269,1.616-1.562,1.616-1.562
			l0.916-0.592c0,0,0.808,0.431,1.346,0.054c0.539-0.377,0.916-1.185,0.916-1.185s9.209,1.4,10.34,2.208
			c1.131,0.808,4.578,2.046,4.578,2.046l3.088,0.969l1.867,2.298c0,0,1.293,4.883,0.431,7.109c-0.862,2.226-2.729,7.755-2.513,8.473
			c0.215,0.718-1.221,4.38-2.37,5.026c-1.149,0.646-1.795,0.79-1.795,0.79s-7.037-4.883-12.207-6.462
			c-5.17-1.58-12.422-2.298-12.422-2.298s-7.54-4.524-10.484-5.098c-2.944-0.574-10.627-2.513-10.627-2.513
			s-12.925-8.114-16.443-8.617c-3.519-0.503-7.971-4.021-9.622-5.529c-1.652-1.508-3.375-3.231-3.231-3.949
			c0.144-0.718-1.723-2.01-2.298-2.298c-0.574-0.287-3.59-5.314-4.596-7.037c-1.005-1.723-4.249-9.12-4.249-9.12
			s-1.643-0.677-2.223,0.097c-0.58,0.773-0.87,2.417-0.87,2.417s-1.257,1.16-1.063,1.643c0.193,0.483,0.773,0.483,0.773,0.483
			l-0.097,3.673c0,0-1.063,0.387-1.257,0.967c-0.193,0.58,0,1.74,0,1.74h1.353c0,0,0.193,1.933,0.677,3.383
			c0.483,1.45,0.397,5.8,0.295,6.284c-0.102,0.483-1.165,0.58-1.262,1.353c-0.097,0.773,0.29,1.353,0.29,1.353h0.972
			c0,0-1.455,1.547-1.262,2.127c0.193,0.58,0.773,1.547,0.773,1.547h1.45c0,0-0.193,2.997,2.707,2.61
			c2.9-0.387,4.543-1.16,5.607-0.773c1.063,0.387,3.77,0,5.607,2.03c1.837,2.03,10.054,9.377,15.274,12.954
			c5.22,3.577,11.407,4.93,14.404,5.994c2.997,1.063,5.993,3.19,5.993,3.19s7.54,6.864,10.827,10.44
			c3.287,3.577,9.087,6.187,9.087,6.187l0.677,3.287l4.06,1.933l-5.22,7.443l1.45,8.604c0,0-4.707,11.501-5.461,17.748
			c-0.754,6.247-0.431,10.232,0.215,12.279c0.646,2.046,1.616,5.924,1.4,7.97c-0.215,2.047,0.754,9.586,2.154,14.11
			c1.4,4.524,1.4,10.663,0.539,13.571c-0.862,2.908-3.231,10.556-4.201,11.633c-0.969,1.077-6.355,7.755-5.709,8.401
			c0.646,0.646,4.201,1.4,5.278,1.077c1.077-0.323,5.493,0.215,6.57-1.293c1.077-1.508,2.477-5.17,4.416-6.247
			c1.939-1.077,6.678-3.554,7.001-5.924s-0.969-4.632-0.969-4.632s-4.344-6.211-4.344-6.642c0-0.431,1.436-13.212,1.723-18.813
			c0.287-5.601-0.574-10.627-1.005-13.5c-0.431-2.872-1.005-5.457-1.005-5.457l7.899-12.781l6.606-9.478l2.872-2.872
			c0,0,5.314-1.293,8.473-5.888c3.159-4.596,4.308-9.048,4.308-9.048l4.739-0.862v-7.324c0,0,1.723-5.17,3.016-6.75
			c1.292-1.58,3.159-6.463,4.452-8.904c1.292-2.441,4.739-11.633,5.17-16.228C522.788,316.14,520.203,307.092,520.203,307.092z"/>
		
			<ellipse transform="matrix(0.9732 -0.2298 0.2298 0.9732 -53.0361 105.9108)" style="fill:#09203F;" cx="428.292" cy="280.707" rx="12.925" ry="12.925"/>
	</g>
</g>
</svg>
