<?xml version="1.0" encoding="utf-8"?>
<!-- Generator: Adobe Illustrator 27.5.0, SVG Export Plug-In . SVG Version: 6.00 Build 0)  -->
<svg version="1.1" xmlns="http://www.w3.org/2000/svg" xmlns:xlink="http://www.w3.org/1999/xlink" x="0px" y="0px"
	 viewBox="0 0 750 500" style="enable-background:new 0 0 750 500;" xml:space="preserve">
<g id="BACKGROUND">
	<rect style="fill:#FFFFFF;" width="750" height="500"/>
</g>
<g id="OBJECTS">
	<path style="fill:#09203F;" d="M179.01,301.695c0,0-17.238-22.009-19.547-25.241c-2.309-3.232-11.697-4.925-15.391-5.849
		c-3.694-0.924-5.541-2.616-5.541-2.616l-0.616-10.312c0,0,2.462-1.231,2.616-3.694c0.154-2.463-1.231-4.002-1.231-4.002
		s0-5.541-2.463-8.927c-2.462-3.386-10.773-4.309-10.773-4.309c-5.849,0.616-8.773,6.156-9.235,8.773c-0.462,2.616,0,8.311,0,8.311
		s-1.539-0.77-1.385,1.077c0.154,1.847,1.385,5.233,2.001,5.694c0.616,0.462,1.385,0,1.385,0s1.374,2.924,1.918,3.54
		c0.544,0.616,0,8.003,0,8.003s-8.844,5.079-12.692,6.464c-3.848,1.385-8.311,10.466-10.774,15.083
		c-2.463,4.617-8.311,10.774-8.465,15.083c-0.154,4.309,2.001,9.234,3.386,12.313c1.385,3.078,5.387,7.849,7.08,9.388
		c1.693,1.539,4.002,2.155,4.002,2.155l1.693,3.232c0,0-3.848,2.155-4.309,3.54c-0.462,1.385-4.771,4.925-6.31,5.541
		c-1.539,0.616-5.233,7.542-6.772,8.773c-1.539,1.231-6.157,7.695-6.157,10.312c0,2.616,0,5.695,0,5.695s-1.693,12.467-1.077,18.315
		c0.616,5.849,2.309,25.395,1.385,29.397c-0.923,4.002-2.308,5.079-2.308,5.079s-2.924,0.616-5.233,3.232
		c-2.309,2.616-6.772,5.387-9.542,6.31c-2.771,0.923-5.233,2.77-5.387,4.309c-0.154,1.539,2.77,3.078,2.77,3.078l5.695,1.693
		c0,0-6.364,5.87-5.695,15.853c0.609,9.085,9.125,15.72,20.008,14.467c9.684-1.115,15.848-10.756,13.544-21.085
		c-1.749-7.842-8.465-11.543-8.465-11.543s6.464,0.154,6.772-1.231c0.308-1.385,1.847-12.159,1.385-12.775
		c-0.462-0.616-1.693-2.155-1.693-2.155s1.847-15.237,3.54-21.24c1.693-6.002,2.155-16.622,2.001-20.008
		c-0.154-3.386-0.154-7.234-0.154-7.234l3.078-2.77c0,0,6.618,6.618,11.543,6.926c4.925,0.308,4.31-4.617,4.31-4.617l3.54-7.08
		c0,0,3.232,16.622,4.617,17.392c1.385,0.77,5.694,2.001,5.694,2.001s-0.462,6.002,0,9.235c0.462,3.232,1.385,5.387,0.923,8.311
		c-0.462,2.924-1.847,8.465-0.923,14.775c0.923,6.31,2.309,15.391,2.001,18.469c-0.308,3.078-2.309,6.464-1.847,9.696
		c0.462,3.232-1.077,4.771,0.462,6.464c1.539,1.693,4.31,2.616,4.31,2.616s0.308,3.386,3.232,3.848
		c2.924,0.462,9.081-0.154,9.85-1.231c0.77-1.077,0-3.694,0-3.694s-6.926-9.696-7.08-13.852c-0.154-4.156,4.31-22.779,5.079-26.626
		c0.77-3.848-0.616-18.777-0.616-18.777l0.924-7.388c0,0,8.003-1.077,8.311-2.155c0.308-1.077-1.231-25.087-0.77-27.55
		c0.462-2.463-1.693-14.775-1.693-14.775l-0.308-3.078l2.811-2.616c0,0,5.962-1.231,8.886-5.233
		c2.924-4.002,13.082-19.7,13.698-23.394C179.626,305.389,179.01,301.695,179.01,301.695z M111.375,313.383
		c-0.574,4.921-1.23,11.647-1.23,11.647h-3.117c0,0-3.691-4.265-3.691-5.413c0-1.148,0-4.101,0-4.101l-1.64-2.051l1.722-1.886
		l0.164-3.691l4.167-2.807h2.155C109.905,305.081,111.949,308.462,111.375,313.383z M163.784,314.613
		c0.574,0.82-1.805,3.035-1.313,3.773c0.492,0.738-4.183,4.265-4.265,5.905c-0.082,1.64-2.542,3.363-2.542,3.363l-5.331-0.41
		c0,0,0-4.757,0.984-5.659c0.984-0.902,2.379-4.019,2.379-4.019s-0.246-7.464,0.656-9.842c0.902-2.379,2.214-7.053,2.214-7.053
		h2.625l5.003,4.411c0,0,0.328,4.447,1.066,5.185C165.999,311.005,163.21,313.793,163.784,314.613z"/>
	<path style="fill:#09203F;" d="M348.279,334.72c-0.841-1.682-3.364-4.952-3.364-4.952s0.374-2.336-0.467-2.616
		c-0.841-0.28-2.71,1.308-2.71,1.308s-4.672-7.849-6.448-12.428c-1.775-4.579-4.765-6.074-5.607-7.662
		c-0.841-1.588-4.952-9.624-5.513-12.334c-0.561-2.71-5.513-11.306-7.102-14.951c-1.589-3.644-4.111-4.018-8.036-4.766
		c-3.924-0.747-5.139-2.429-5.139-2.429s1.028-1.028,1.495-1.869c0.467-0.841,0-3.364,0.374-4.392
		c0.374-1.028,0.467-3.925,0.467-3.925s0.747-1.869,1.1-2.429c0.353-0.561-1.1-3.271-1.1-3.271s0.561-2.056,0.935-2.71
		c0.374-0.654,0-3.457,0-3.457l1.869-0.935c0,0,1.495-4.952,0.28-7.475c-1.215-2.523-9.064-3.924-11.493-4.766
		c-2.43-0.841-13.175,0.934-15.698,3.084c-2.523,2.149-2.429,10.652-1.869,14.11c0.561,3.457,3.737,8.13,3.737,8.13l0.467,5.326
		c0,0-5.326,2.99-7.288,4.205c-1.962,1.215-7.569,1.869-8.97,1.775c-1.402-0.094-8.784,3.27-11.587,5.98
		c-2.803,2.71-6.541,6.728-10.279,9.625c-3.738,2.897-12.521,11.026-13.549,12.241c-1.028,1.215-3.644,21.492-3.831,25.229
		c-0.187,3.738-2.429,12.708-2.762,15.698c-0.332,2.99,1.08,4.392,1.08,4.392s-1.775,6.447-1.402,6.821
		c0.374,0.374,2.336,0.654,2.336,0.654v2.983c0,0,1.776-0.46,2.243-0.46c0.467,0,1.402-7.943,1.402-7.943l1.495-1.589v9.438
		c0,0,1.402,0,1.962-0.093c0.561-0.093,1.495-11.774,1.495-11.774l2.99,2.149l1.682-0.747c0,0,0.28-1.402-0.374-2.056
		c-0.654-0.654-2.243-2.523-2.43-4.859c-0.187-2.336-1.121-2.056-1.962-6.541c-0.841-4.485,1.402-14.11,3.084-17.754
		c1.682-3.644,3.738-10.185,3.738-10.185s3.364-1.215,7.662-2.897c4.298-1.682,10.746-6.354,10.746-6.354l0.748,4.018
		c0,0,1.402,6.728,1.495,11.306c0.093,4.579-3.364,16.633-3.364,16.913c0,0.28-2.243,4.018-4.485,7.569
		c-2.243,3.551-2.243,16.633-0.935,23.454c1.308,6.821,7.662,14.016,7.943,14.951c0.28,0.935,2.616,13.923,2.616,13.923
		s1.214,1.495,1.588,2.056c0.374,0.561,3.271,1.495,3.271,1.495l0.093,9.811c0,0-4.859,1.308-9.157,4.392
		c-4.298,3.084-7.662,9.718-9.625,11.867c-1.962,2.149-7.382,5.98-7.382,5.98s-5.606,0.561-7.756,2.897s-0.467,4.205-0.467,4.205
		l1.682,1.775c0,0-0.841,0.934-0.841,1.775s2.149,1.869,2.149,1.869l2.225,4.018c0,0,0.204,9.718,0.017,10.652
		c-0.187,0.935,1.215,1.495,1.215,1.495s0.841,1.495,1.495,2.71c-0.841,1.682,1.028,1.589,1.028,1.589l3.271,1.962
		c0,0,3.177-0.093,3.925-2.056c0.747-1.962,0.28-7.569-0.467-9.064c-0.747-1.495-0.467-5.046-0.841-5.98
		c-0.374-0.934,0.28-4.485,0.56-7.382c0.28-2.897,5.14-6.447,12.428-10.092c7.288-3.644,10.746-7.662,10.746-7.662
		s1.495,5.793,1.869,8.503c0.374,2.71,3.364,11.12,3.644,14.577c0.28,3.457,1.869,6.541,1.962,9.344
		c0.093,2.803-0.561,6.821-0.935,8.597c-0.374,1.775,1.308,4.859,1.962,4.952c0.654,0.093,1.308-0.374,1.308-0.374
		s0.935,1.308,1.589,1.402c0.654,0.093,1.215-1.215,1.215-1.215l2.314,0.841c0,0,0.77,1.402,1.05,1.631
		c0.28,0.23,1.495-0.697,1.495-0.697s0.841,0.841,1.589,0.675c0.747-0.166,1.215-0.582,1.215-0.582s1.028,0.374,2.803,0.561
		c1.775,0.187,7.008-0.935,7.008-0.935s0.491-0.777,0.828-1.872c2.771,2.948,6.694,4.799,11.059,4.799
		c8.389,0,15.189-6.801,15.189-15.189c0-8.389-6.8-15.189-15.189-15.189c-8.389,0-15.19,6.801-15.19,15.189
		c0,1.966,0.386,3.838,1.066,5.562c-0.118-0.019-0.193-0.029-0.193-0.029s-1.308-0.654-2.71-1.308
		c-1.401-0.654-5.42-6.074-6.448-7.756c-1.028-1.682-2.616-6.915-2.99-8.97c-0.374-2.056,0.187-15.137,0.654-18.501
		c0.467-3.364-1.028-9.251-1.215-11.4c-0.187-2.149,0.841-5.793,1.775-8.41c0.934-2.616,0.934-10.652,0.934-10.652
		s-0.093-2.336,0.841-3.271c0.934-0.934,1.495-7.756,1.589-9.811c0.094-2.056,2.523-10.185,1.706-11.96
		c-0.817-1.775,0.723-5.233,1.004-8.503c0.28-3.271-0.467-8.316-0.935-10.933c-0.467-2.616,1.589-8.877,1.121-10.652
		c-0.467-1.775,1.495-4.579,2.056-7.475c0.561-2.897,4.205-16.352,5.326-19.81c1.121-3.457,4.579-10.092,4.579-10.092l2.336,1.121
		v1.962l1.775,1.588c0,0,0.747,2.523,1.869,4.766c1.121,2.243,5.98,9.064,5.98,9.064s0.374,2.056,3.457,5.7
		c3.083,3.644,11.306,8.97,11.306,8.97s1.215,2.149,2.149,2.43c0.935,0.28,1.682,2.243,2.616,3.551
		c0.935,1.308,4.112,2.243,4.112,2.243l-1.308,3.551c0,0,1.588,1.121,2.243,1.121c0.654,0,2.149-3.831,2.616-4.859
		C349.681,338.925,349.12,336.402,348.279,334.72z"/>
	<g>
		<path style="fill:#09203F;" d="M457.281,39.044c3.356,0.954,7.996,5.9,8.626,8.857c0.63,2.957-0.33,11.507-0.33,11.507
			s3.127-2.15,3.802-1.305c0.675,0.845,5.712,9.107,5.712,9.107l10.613,6.579l-0.32,2.85c0,0,6.881,2.119,9.688,2.819
			c2.807,0.7,14.671,2.994,14.671,2.994s1.945-1.898,3.253-1.559c1.309,0.339,9.324,7.781,9.428,8.562
			c0.105,0.781,1.262,4.182,0.649,4.498c-0.613,0.316-4.979-3.637-4.979-3.637s-1.206,2.173-1.755,1.919s-1.665-2.303-1.665-2.303
			s-11.15,1.634-13.725,0.576c-2.575-1.059-5.086-2.687-5.086-2.687l-7.853-1.459c0,0,8.31,7.667,9.301,9.125
			c0.991,1.458,2.018,7.73,1.297,10.728c-0.721,2.997-2.098,6.691-2.098,6.691s3.096,6.697,3.897,8.134
			c0.801,1.437,0.965,5.111,0.965,5.111l-2.743-1.27c0,0,0.737,2.007,0.145,2.133c-0.591,0.126-3.29-3.255-3.29-3.255
			s0.481,2.573-0.131,2.88c-0.612,0.308-2.659-0.307-4.831-3.245c-2.171-2.937-2.359-4.69-2.359-4.69l-2.79,2.573l-1.117-1.472
			c0,0-0.355-3.118,0.723-4.729c1.078-1.611,4.524-4.879,4.524-4.879l-2.73-12.813l-8.143-6.879l-4.847,10.615l2.894,17.064
			c0,0,4.938,2.286,5.252,4.63c0.314,2.344,0.289,5.997,0.289,5.997l17.102,19.044l-1.123,3.145l5.562,10.437
			c0,0,2.856-4.874,6.046-5.863c3.189-0.989,14.846-1.989,16.515-3.148c1.669-1.159,1.505-4.833,1.505-4.833s2.98-2.552,4.353-2.782
			c1.373-0.231,5.592,3.321,8.653,3.473c3.061,0.151,7.771-0.667,11.104,2.209c3.333,2.875,4.934,5.749,4.934,5.749
			s-0.954,3.356-1.757,3.651c-0.803,0.295-10.873-0.836-12.077-0.394c-1.204,0.442-3.93,2.445-5.006,1.747
			c-1.076-0.698-2.827-2.241-2.827-2.241s-3.55,2.487-4.84,3.689c-1.289,1.202-22.524,13.825-24.277,14.013
			c-1.753,0.188-5.237,0.374-7.705-1.635c-2.468-2.009-12.633-12.578-12.633-12.578l-4.436,1.811c0,0-11.747-11.901-12.887-12.029
			c-1.14-0.128-13.568,11.175-13.568,11.175l-6.416-2.837l-17.322,6.906c0,0-0.834,9.142-5.039,12.325
			c-4.205,3.184-11.752,10.417-11.752,10.417l-8.289,10.421c0,0,0.165,3.674-1.823,5.952c-1.987,2.278-6.928,1.723-6.928,1.723
			l-5.78-5.074c0,0-7.282-1.972-8.653-3.473c-1.371-1.501-5.349-12.337-5.411-13.498c-0.062-1.161,2.22-2.637,2.22-2.637
			s9.452,6.641,11.563,6.685c2.111,0.045,5.555-1.493,5.555-1.493l1.537,3.443c0,0,7.781-9.324,14.191-20.148
			c6.41-10.824,5.759-13.591,5.759-13.591s3.932-4.176,7.102-6.706c3.17-2.53,17.859-15.119,17.859-15.119l2.517-3.565l1.817-0.758
			l-0.015-5.004c0,0-3.292-1.524-3.523-2.897c-0.231-1.373,2.606-7.788,2.337-12.244c-0.269-4.455-0.746-12.205,1.27-21.599
			c2.017-9.394,7.285-18.615,7.159-19.206c-0.126-0.591-1.665-2.303-1.665-2.303s-3.674,0.165-4.116-1.039
			c-0.442-1.204-1.83-5.977-1.83-5.977l-2.216-0.826l0.531-3.019l-2.363-1.227l-0.543-5.448c0,0-2.47-0.277-2.532-1.439
			c-0.062-1.161,3.323-7.323,7.253-9.768c3.93-2.445,10.433-2.1,10.433-2.1L457.281,39.044z"/>
		
			<ellipse transform="matrix(0.9989 -0.0463 0.0463 0.9989 -8.8682 20.0458)" style="fill:#09203F;" cx="428.548" cy="201.573" rx="13.288" ry="13.288"/>
	</g>
	<g>
		<path style="fill:#09203F;" d="M701.011,103.527c0,0,0.587-0.949-0.006-2.253c0.119-1.304-1.423-1.897-1.423-1.897
			s0.356-0.949-0.474-1.542c-0.83-0.593-6.285,1.304-6.285,1.304l-1.423-1.067c0,0-5.811-0.119-6.404,0.356
			c-0.593,0.475-6.048,2.253-6.048,2.253s-3.202-0.118-6.048-1.186c-2.846-1.068-10.199-5.692-10.317-6.048
			c-0.118-0.356-1.067-4.625-1.542-5.218c-0.474-0.593-2.135-2.016-2.253-3.202c-0.119-1.186-1.067-4.506-1.067-4.506
			s-0.593-7.353-2.135-10.199c-1.542-2.846-10.436-7.708-10.436-7.708s-0.119-1.542-0.119-2.016c0-0.474,1.897-3.795,2.727-5.811
			c0.83-2.016,1.423-6.878,1.252-8.183c-0.171-1.304-0.422-4.388-0.422-4.388s0.949-6.76,0-8.183
			c-0.949-1.423-8.183-3.795-9.25-4.032c-1.067-0.237-5.929,1.423-6.997,2.135c-1.067,0.712-2.846,4.151-3.558,5.337
			c-0.712,1.186,1.779,6.878,1.779,6.878s-1.305,0.237-1.66,0.949c-0.356,0.712,3.439,5.929,3.439,5.929l0.119,4.151l-2.372,2.372
			c0,0-4.032,1.542-8.064,2.846c-4.032,1.304-10.792,7.234-13.519,11.74c-2.727,4.506-4.506,14.231-4.506,14.231l-3.439,8.775
			c0,0-0.83,6.404-0.83,8.894c0,2.49,5.099,20.516,5.574,22.295c0.474,1.779,0,5.574,0,5.574s-1.542,2.965-1.897,4.032
			c-0.356,1.067,0,5.811,0,5.811s1.305-0.119,1.779-0.356c0.474-0.237,1.186-4.15,1.186-4.15l1.067,3.558
			c0,0,0.83,1.423,3.202,1.542c2.372,0.119,3.321-0.949,3.321-0.949s2.016,0.237,2.372-0.83s-1.067-2.609-1.067-2.609l4.151,2.016
			c0,0,4.269,6.76,6.997,10.08c2.728,3.321,10.792,12.452,10.792,12.452s-1.542,5.455-1.779,9.368
			c-0.237,3.913,2.609,7.353,2.965,9.724c0.356,2.372-1.186,6.048-1.897,8.064c-0.712,2.016,1.779,3.795,1.897,5.218
			c0.119,1.423-0.237,4.625,0.83,7.708c1.067,3.083,5.574,5.337,5.574,5.337s4.506,0.119,5.218-0.119
			c0.712-0.237,1.186-2.49,1.186-5.337s-4.625-12.452-4.743-13.638c-0.119-1.186,0.356-3.676-0.593-4.744
			c-0.949-1.067,0.237-4.743,0.356-6.285c0.119-1.542,3.083-9.606,4.625-13.875c1.542-4.269,0.593-9.487,0.593-9.487
			s4.388,6.997,4.625,7.59c0.237,0.593,6.167,9.013,6.404,10.554c0.237,1.542,1.779,9.487,4.743,14.349
			c2.965,4.862,7.827,11.029,8.539,14.349c0.711,3.32,1.66,6.522,1.304,9.25c-0.356,2.727,2.253,5.692,3.914,6.641
			c1.66,0.949,1.897,4.15,1.897,4.15l12.57,0.593c0,0-0.118-2.49-0.237-3.795c-0.119-1.305-8.894-9.013-8.894-10.555
			c0-1.542-1.423-2.49-2.372-4.269c-0.949-1.779-1.66-5.099-2.372-7.115c-0.712-2.016-2.253-7.708-3.32-14.349
			c-1.067-6.641-2.372-11.859-4.151-14.586c-1.779-2.727-2.016-3.32-3.083-6.641c-1.067-3.32-2.135-4.388-3.202-8.301
			c-1.067-3.913-4.506-14.824-6.167-17.433c-1.66-2.609-3.913-10.08-3.795-11.266c0.119-1.186-4.744-6.641-6.048-7.234
			c-1.305-0.593-0.237-3.558-0.237-5.929c0-2.372-1.305-7.234-1.423-9.606c-0.119-2.372,0.119-6.167,0.119-6.167l4.388,7.115
			c0,0,4.388,4.269,10.327,5.455c5.939,1.186,13.273,0.356,13.273,0.356s5.455,1.067,9.013,0.593
			c3.558-0.474,4.862-2.016,4.862-2.016h4.981c0,0,0.237-0.593,0.474-1.186c0.237-0.593-3.202-1.304-3.558-1.66
			C693.652,103.171,701.011,103.527,701.011,103.527z M613.485,103.053c-0.119,0.83-3.083,8.539-3.083,8.539l-0.712-13.994
			l3.795-5.574c0,0,0.237,3.202,0,4.269C613.248,97.36,613.604,102.222,613.485,103.053z"/>
		<circle style="fill:#09203F;" cx="616.403" cy="191.248" r="13.513"/>
	</g>
	<path style="fill:#09203F;" d="M703.471,341.111c0,0-3.619-2.122-9.36-0.998c-5.741,1.123-5.366-0.25-5.366-0.25
		s-0.499-0.749-1.123-0.749c-0.624,0-1.497,1.123-1.497,1.123l-1.373-0.749c0,0-1.997,0.374-1.872,0.749
		c0.125,0.374-4.368-0.624-4.368-0.624s-4.618-9.36-8.362-14.851c-3.744-5.491-8.486-8.237-8.486-8.237l-7.862-12.48
		c0,0-2.122-4.867-2.621-6.614c-0.499-1.747-5.242-7.862-5.866-8.861c-0.624-0.999-4.493-1.123-4.493-1.123l-9.273-7.737
		l-1.709-2.371l-0.25-2.746c0,0,1.421-1.498,1.959-4.243s0-4.243,0-4.243s0.211-4.493-1.123-7.113
		c-1.335-2.621-4.704-7.862-13.815-6.49c-9.11,1.373-10.982,8.486-11.107,12.854c-0.125,4.368,4.243,7.862,4.243,7.862
		s1.373,3.744,1.997,4.742c0.624,0.999-1.373-0.125-5.366,1.123c-3.994,1.248-6.864,1.498-6.864,1.498l-9.859-1.622
		c0,0-2.122-4.368-4.867-6.614c-2.745-2.246-5.99-4.742-8.486-7.488c-2.496-2.745-4.901-6.526-4.901-6.526v-1.062
		c0,0,0.607-3.035,0-3.642c-0.607-0.607-4.704-4.248-4.704-4.248s-1.369-0.185-1.611,0c-0.242,0.185-0.242,0.83-0.242,0.83
		s-1.734-0.565-2.097,0.08c-0.363,0.645-0.686,1.654-0.686,1.654s-1.653,0.282-1.653,0.927c0,0.645-1.29,2.783-1.29,2.783
		s-0.766,0.847-0.484,1.653c0.282,0.807,2.016,3.266,2.823,3.791c0.807,0.524,3.146,1.936,3.146,1.936s4.337,6.815,8.768,14.49
		c4.43,7.675,8.424,9.547,8.424,9.547s6.614,2.621,9.485,3.619c2.87,0.999,7.113,1.934,7.113,1.934v3.494l0.874,0.624
		c0,0,0.874,15.537,1.373,21.653c0.499,6.115-2.746,6.739,0,13.229c2.746,6.489,1.872,14.102,3.37,18.47
		c1.498,4.368,2.246,7.488,2.496,7.987c0.25,0.499-1.248,3.619-0.998,4.867c0.25,1.248-3.37,0-2.621,2.87
		c0.749,2.87,1.373,8.237,1.373,8.237s-1.747,7.613-1.498,13.229c0.25,5.616-0.998,13.478,0.25,15.225
		c1.248,1.747,3.176,5.866,3.523,9.984c0.346,4.118,0.596,7.738,2.343,13.977c1.747,6.24,4.243,13.478,5.117,14.102
		c0.874,0.624,1.747,3.245,1.747,3.245s-3.37-0.499-7.737-1.497c-4.368-0.999-6.864-0.624-7.862,1.872
		c-0.998,2.496-1.123,4.867,1.498,7.738c2.621,2.87,6.614,5.491,10.608,6.614c3.994,1.123,8.611,1.123,8.985,1.497
		c0.374,0.374,5.616,1.872,5.616,1.872l4.992-1.123l3.583-2.702c2.912,3.369,7.207,5.51,12.01,5.51
		c8.771,0,15.881-7.11,15.881-15.881c0-8.771-7.11-15.881-15.881-15.881c-7.969,0-14.547,5.876-15.687,13.527
		c-2.412-3.345-4.519-6.733-4.773-8.66c-0.624-4.742,0.374-10.608-0.874-15.35c-1.248-4.742-7.238-13.603-6.989-15.475
		c0.25-1.872,2.246-7.363,2.246-7.363s8.611-1.622,10.733-5.242c2.122-3.619,4.118-8.112,4.118-9.36
		c0-1.248,1.622-7.738,1.622-7.738l3.245,2.122c0,0,15.101,0.499,21.465,3.494s16.224,8.237,18.969,7.737
		c2.746-0.499,4.867,0.999,6.365-1.872c1.498-2.87,2.496-8.361,2.746-10.233c0.25-1.872,4.368-6.864,4.742-9.61
		c0.374-2.745-0.125-11.192,0-12.21c0.125-1.018-0.839-1.767,0.142-2.266c0.981-0.499,4.6-3.744,4.6-3.744s3.12,0.624,4.118-2.122
		C705.218,344.73,703.471,341.111,703.471,341.111z M680.633,357.585c0,0-1.498,1.747-2.995,2.995
		c-1.498,1.248-2.122,6.989-2.122,6.989s-2.746-3.494-5.99-6.24c-3.245-2.746-7.613-9.859-10.109-10.358
		c-2.496-0.499-3.744-2.121-4.867-3.869c-1.123-1.747-6.115-2.87-6.989-3.12c-0.874-0.25,2.745-1.872,1.373-2.995
		c-1.373-1.123,1.498-3.869,1.747-4.867c0.25-0.998-2.621-6.614-3.619-7.737c-0.998-1.123-4.493,0-5.062,0
		c-0.569,0-2.177-1.497-2.8-2.621c-0.624-1.123,0.998-4.118,1.747-5.366c0.749-1.248,1.747-2.246,1.498-4.118
		c-0.25-1.872,2.496-5.99,2.496-5.99c0.374,3.494,5.616,7.987,7.363,9.36c1.747,1.373,3.869,7.238,4.742,8.486
		s5.99,5.491,10.109,8.611c4.118,3.12,4.742,4.493,5.242,6.24c0.499,1.747,4.992,5.117,6.365,6.24c1.373,1.123,3.494,0,3.494,0
		s0.749,0.624,1.248,2.496C682.505,352.219,680.633,357.585,680.633,357.585z"/>
	<g>
		<path style="fill:#09203F;" d="M481.275,360.568c0,0,4.864,0,5.527-2.763c0.663-2.764,1.99-11.939,1.769-15.034
			c-0.221-3.095-1.326-12.713-2.321-15.697c-0.995-2.985-3.648-10.723-3.537-11.054c0.11-0.332,0.995-2.432,0.995-2.432
			s2.432,3.758,3.095,4.09c0.663,0.332,1.793,0.332,1.793,0.332s5.06,4.753,5.392,6.633c0.332,1.879,1.437,6.633,3.538,10.06
			c2.1,3.427,5.306,8.622,5.085,11.607c-0.221,2.985-1.216,8.622-1.216,9.617c0,0.995-0.553,2.543-0.221,2.653
			c0.332,0.111,2.432,0.553,2.432,0.553l0.995,2.653c0,0-2.432,3.648-2.432,4.311c0,0.663,0.553,1.658,0.553,1.658l3.206-2.653
			c0,0,2.874-0.995,3.427-1.769c0.553-0.774,3.206-3.98,3.537-4.532c0.332-0.553,0.774-2.542,0-3.206
			c-0.774-0.663-2.985-6.412-2.874-8.18c0.111-1.769-1.105-5.969-1.216-7.848c-0.11-1.879-2.874-15.034-2.874-15.034
			c-1.548-3.538-6.301-10.17-6.633-10.612c-0.332-0.442-2.432-4.09-2.432-4.09l-1.879-4.974c0,0-6.854-14.371-7.738-15.145
			c-0.884-0.774-15.145-7.075-23.767-8.291c-0.442-2.432,1.105-6.412,1.105-6.412l0.553-5.748c0,0,1.769-3.206,1.879-4.311
			c0.11-1.105,1.216-2.543,1.769-2.985c0.553-0.442,1.437-2.874,0.995-4.422c-0.442-1.548-6.964-5.638-6.964-5.638l0.111,1.216
			c0,0-3.648-1.879-3.98-2.1c-0.332-0.221,0.221,1.658,0.221,1.658s-7.296-2.322-12.492-0.332c-5.195,1.99-7.406,7.627-7.406,7.627
			l1.879,2.211l0.111,6.743c0,0-1.548,0-2.322,1.216c-0.774,1.216,0.553,5.748,0.884,6.301c0.332,0.552,3.206,1.99,3.206,1.99
			l1.105,4.864l-1.105,2.1c0,0-5.638,2.764-8.733,4.422c-3.095,1.658-8.622,4.311-11.054,8.512
			c-2.432,4.201-5.196,9.286-6.301,11.718c-1.105,2.432-2.542,7.407-3.979,8.733c-1.437,1.327-3.538,5.969-5.417,7.738
			c-1.879,1.769-3.316,3.869-3.427,6.743c-0.111,2.874,0.553,5.306,2.432,8.954c1.879,3.648,4.643,6.854,4.643,6.854
			s-2.1,5.417-2.763,6.854c-0.663,1.437-4.201,6.743-3.869,7.075c0.332,0.332,1.437,0.774,1.437,0.774l2.874-4.422
			c0,0-0.884,5.97-0.332,5.859c0.553-0.11,1.769,0.002,1.769,0.002l1.548-5.971c0,0,0.221,6.083,0.553,5.971
			c0.332-0.112,2.1-0.554,2.1-0.554l0.774-8.18c0,0,1.769,6.301,2.321,6.08c0.553-0.221,1.879-0.332,1.879-0.663
			c0-0.332-0.442-8.401-0.442-8.401s3.648-0.553,3.98-1.437c0.332-0.884-2.543-6.191-4.201-8.401
			c-1.658-2.211-3.869-8.18-3.869-8.18c0-1.437,1.105-4.754,2.211-5.748c1.105-0.995,4.974-3.316,6.301-5.859
			c1.327-2.542,5.085-5.195,5.638-6.19c0.553-0.995,2.1-3.095,2.1-3.095l2.211,0.884c0,0,0.663,3.537,0.221,5.638
			c-0.442,2.1-1.769,7.185-0.553,9.175c1.216,1.99,1.879,3.869,1.879,3.869s-3.206,2.653-2.985,5.638
			c0.221,2.985,1.769,7.848,1.658,8.18c-0.111,0.332,1.879,1.879,2.1,2.211c0.221,0.332-2.1,1.548-2.653,3.869
			s-2.653,2.874-2.543,5.969c0.11,3.095-2.874,6.412-2.432,9.507c0.442,3.095-2.321,5.417-1.99,8.623
			c0.332,3.206,0.221,7.849,0.221,7.849s-1.67,9.396-2.217,12.823c-0.547,3.427-3.089,6.19-6.516,9.838
			c-3.427,3.648-4.753,9.507-5.196,11.939c-0.442,2.432-4.643,14.482-5.859,19.014c-1.216,4.532-2.1,10.281-4.09,12.16
			c-1.99,1.879-3.537,5.306-3.537,6.633s0.553,3.206,0.553,3.206s13.044,0.663,13.597,0c0.553-0.663-0.221-4.311-0.221-4.311
			s1.327-8.328,2.322-10.023c0.995-1.695,4.201-7.996,5.196-9.654c0.995-1.658,4.975-8.402,4.975-8.402s0.221,4.974,3.316,5.306
			c3.095,0.332,6.301-3.759,7.075-5.196c0.774-1.437,4.09-13.265,4.09-13.265l6.412,3.206c1.437,0.884,7.959,3.095,7.959,3.095
			s2.874,2.874,5.748,2.874c2.874,0,6.854-0.995,9.175-5.417c2.321-4.422,6.19-12.713,6.633-15.587
			c0.442-2.874,2.985-21.446,2.985-21.446s3.427-8.954,3.759-10.833c0.332-1.879,0-5.196,0-5.196L481.275,360.568z M451.316,403.878
			h-7.879l-2.912-3.768l3.255-7.88l5.31-7.366c0,0,0,7.023,0,9.592c0,2.569,3.426,6.338,3.426,6.338L451.316,403.878z"/>
		<circle style="fill:#09203F;" cx="499.621" cy="448.186" r="16.216"/>
	</g>
	<g>
		<path style="fill:#09203F;" d="M405.066,49.348c-0.589,0-1.177,0-1.177,0s-1.849-1.765-2.522-1.849
			c-0.673-0.084-1.681,0.757-1.681,0.757l0.589,1.261c0,0-1.597-1.345-1.849-1.261c-0.252,0.084,0,1.093,0,1.093
			s-3.362-0.84-3.951-0.42c-0.588,0.42-0.841,1.429-0.841,1.429l2.438,0.925l0.925,3.026l-1.933,0.42c0,0-3.362-3.026-4.035-3.026
			c-0.672,0-2.017,0.504-2.185,1.429c-0.168,0.925,2.774,3.362,3.278,3.783c0.504,0.42,3.446,2.858,2.017,6.388
			c-1.429,3.53-6.809,14.626-6.809,14.626l-8.153-0.252c0,0-6.304-2.858-7.229-3.53c-0.925-0.672-2.522-2.017-2.522-2.017
			l-0.084-4.455c0,0,3.11-3.446,3.278-3.699c0.168-0.252,2.354-2.354,2.438-2.858c0.084-0.504-0.252-1.345-0.252-1.345
			s1.933-3.783,2.017-5.296c0.084-1.513-2.774-5.548-6.724-6.64c-3.951-1.093-6.22,0.084-7.313,1.429
			c-1.093,1.345-2.942,5.127-2.942,5.127s-0.731-0.084-1.248,0.42c-0.517,0.504-1.106,4.539-0.937,4.959
			c0.168,0.42,0.937,0.588,0.937,0.588l-1.61,1.681c0,0-3.53-3.783-7.061-5.212c-3.53-1.429-12.356-2.354-15.634-2.438
			c-3.278-0.084-6.304-0.084-6.304-0.084s-5.127-2.185-8.321-2.774c-3.194-0.588-6.809,1.681-7.145,2.017
			c-0.336,0.336-0.84,2.69-0.588,3.446s2.522,3.698,2.522,3.698s1.345,3.867,1.933,4.371c0.588,0.504,0.336,3.026,0.757,3.446
			c0.42,0.42,1.009-0.336,1.009-0.336s0.672,1.681,1.009,1.933c0.336,0.252,1.177,0,1.177,0l0.252-2.69c0,0,1.177,2.354,1.429,2.522
			c0.252,0.168,1.681-0.168,1.765-0.42c0.084-0.252-0.925-2.522-0.925-2.522l3.783,1.513c0,0,1.345-0.757,1.261-1.093
			c-0.084-0.336-1.513-3.446-1.513-3.446l10.339,3.446l0.168,1.093c0,0-1.681,2.27-3.698,4.287c-2.017,2.017-5.38,4.539-5.38,4.539
			s-7.901,0.504-8.49,0.42c-0.588-0.084-4.455-2.522-5.296-2.017c-0.84,0.504-1.765,0.672-1.765,0.672s-5.128-1.429-6.22-1.513
			c-1.093-0.084-12.945-6.304-12.945-6.304l-1.681,2.186c0,0-7.313-1.345-8.994-1.849c-1.681-0.504-5.716-3.278-8.658-3.951
			c-2.942-0.672-11.348-2.101-16.139-2.27c-4.791-0.168-6.977-1.093-6.977-1.093s-0.42-1.261-3.026-1.597
			c-3.867-1.933-6.304-3.614-7.397-4.455c-1.093-0.84-4.875-2.591-10.507-1.8c-2.924,0.411-2.605,5.211-1.737,6.369
			c0.868,1.158,4.763,3.668,6.276,3.5c1.513-0.168,4.455,0.841,6.22,3.11c1.765,2.27,3.026,3.951,6.472,3.53
			c3.446-0.42,6.388-1.177,11.347,0.42c4.959,1.597,14.121,5.8,17.147,6.22c3.026,0.42,5.211,2.353,6.977,2.774
			c1.765,0.42,6.556,6.22,7.733,7.733s8.574,5.632,8.574,5.632v1.513c0,0-6.304,3.362-7.986,4.203
			c-1.681,0.841-2.942,1.849-2.942,1.849s-8.238,0.673-12.608,0.925c-4.371,0.252-6.472,0-6.472,0s-3.362-1.429-8.826-1.177
			c-5.464,0.252-13.029,0.42-13.029,0.42l-2.69-2.017c0,0-1.849-3.194-4.707-3.278c-2.858-0.084-4.371,1.261-6.472,1.093
			c-2.101-0.168-7.061-2.27-9.078-2.354c-2.017-0.084-6.304,1.093-7.565,2.354c-1.261,1.261-1.345,3.026-1.093,3.53
			c0.252,0.504,3.026,3.867,7.397,4.119c4.371,0.252,12.44,1.009,14.794,1.429c2.354,0.42,6.472,1.513,6.977,1.429
			c0.504-0.084,13.869,5.716,17.82,6.22c3.951,0.504,14.962,2.522,16.055,2.606c1.093,0.084,16.811,1.933,20.426,1.513
			c3.614-0.42,13.197-2.101,16.979-2.017c3.783,0.084,11.095-0.757,13.617-2.27c2.522-1.513,2.774-2.27,2.774-2.27
			s5.464,1.513,10.759-1.513s13.197-9.919,17.063-11.179c3.867-1.261,10.591-8.658,10.591-8.658l11.684-0.42
			c0,0,5.38-0.588,8.153-1.849c2.774-1.261,3.615-4.203,4.623-6.556c1.009-2.354,4.119-10.003,4.791-11.6
			c0.672-1.597,3.278-10.423,3.446-11.264c0.168-0.84,3.783-2.942,4.287-3.53c0.504-0.588,0.504-2.017,0.504-2.017
			S405.654,49.348,405.066,49.348z"/>
		
			<ellipse transform="matrix(0.9732 -0.2298 0.2298 0.9732 0.9479 89.8541)" style="fill:#09203F;" cx="386.335" cy="40.857" rx="9.878" ry="9.878"/>
	</g>
	<path style="fill:#09203F;" d="M270.665,194.227c0,0-4.363-1.366-9.983-1.558c-5.62-0.192-10.653,0.244-13.057-0.599
		c-2.404-0.842-15.935-9.821-24.054-12.532c-8.119-2.711-10.879-2.045-10.879-2.045l-17.396-7.134l0.219-1.969
		c0,0-1.933-1.283-5.998-2.486c-4.065-1.204-13.012-6.376-15.233-8.124c-2.221-1.749-5.012-0.172-5.012-0.172l-8.575-2.726
		c0,0-1.991-4.022-3.824-3.78c-1.833,0.241-3.357,0.341-3.949-0.135c-0.592-0.476-5.219-7.478-5.219-7.478s-0.054-7.301-0.028-8.061
		c0.026-0.76,9.714,0.526,14.596,0.064c4.882-0.462,7.752,0.092,13.916-2.282c6.164-2.374,15.649-4.027,19.917-4.337
		c4.269-0.31,7.956-1.401,8.914-2.736c0.958-1.336,4.588-0.756,4.588-0.756s4.51,1.523,5.584,1.255
		c1.074-0.267,2.315-0.985,2.315-0.985l-0.247-1.681c0,0,0.057-1.671-0.676-2.456c-0.734-0.785-6.051-5.377-7.093-6.021
		c-1.042-0.644-2.551-1-4.562-0.004c-2.011,0.996-6.981,4.019-6.981,4.019l-6.395,0.237l-1.587,1.923c0,0-8.202-0.28-13.984-0.174
		c-5.782,0.106-7.657,1.563-14.031,1.193c-6.374-0.37-11.697-4.81-16.714-4.83c-5.018-0.02-10.663,0.548-10.663,0.548l-4.096-0.292
		l-1.608-1.88l-1.692,0.55l-0.985-2.315c0,0,1.67-4.353,1.292-6.647s-3.317-5.284-4.496-6.389c-1.179-1.105-5.019-4.416-9.581-4.427
		c-4.562-0.011-8.337,3.661-8.168,7.621c0.169,3.959,1.401,7.955,1.401,7.955l0.236,1.985l-3.148-1.324c0,0-2.74-4.352-6.209-9.641
		c-3.469-5.289-7.409-10.138-8.97-13.385c-1.562-3.247-6.759-11.332-7.912-13.196c-1.153-1.864-2.877-4.813-2.877-4.813
		s1.513-5.2,0.882-9.213c2.245-1.985,3.704-4.829,3.814-8.038c0.214-6.25-4.747-11.491-11.081-11.708
		c-6.333-0.217-11.641,4.674-11.855,10.924c-0.056,1.648,0.255,3.222,0.849,4.656c-0.442,0.489-0.897,1.062-1.064,1.648
		c-0.345,1.205-0.879,3.468-0.146,4.253c0.733,0.785,0.98,2.467,1.86,3.409c0.88,0.943,3.369,3.765,5.915,4.916
		c2.546,1.152,3.272,4.37,3.272,4.37s13.056,25.082,14.665,26.962c1.608,1.88,2.883,9.071,7.389,15.155
		c4.506,6.085,8.944,14.144,9.767,16.757s3.774,9.709,7.945,16.695c4.171,6.986,11.711,17.736,12.743,18.684
		c1.032,0.948,7.109,5.566,7.109,5.566l5.595,5.362c0,0,2.034,7.217,9.414,9.294c7.38,2.077,21.869,9.72,26.122,9.865
		c4.253,0.146,7.139,0.244,7.139,0.244l3.005-3.395l13.88,3.212c0,0,6.883,3.277,16.274,4.358c9.391,1.082,27.34,0.935,27.34,0.935
		s7.087,1.763,9.942,2.773c2.855,1.01,6.034,1.423,6.835,0.234s0.177-5.164,0.177-5.164l-2.2-2.356c0,0,11.664,1.311,12.591,0.887
		c0.927-0.424,5.273-3.013,5.907-3.752C272.479,199.003,270.665,194.227,270.665,194.227z M233.726,199.185
		c-1.484,0.196-11.202-3.708-12.665-4.127c-1.463-0.419-12.623-5.357-12.623-5.357s-8.745,0.07-10.208-0.349
		c-1.463-0.419-8.466-4.476-8.466-4.476l16.07,1.781l0.938,1.387l18.238,6.781l11.771,2.742
		C236.78,197.565,235.21,198.989,233.726,199.185z"/>
</g>
</svg>
